<?xml version="1.0" encoding="us-ascii" standalone="no"?><svg xmlns="http://www.w3.org/2000/svg" xmlns:xlink="http://www.w3.org/1999/xlink" contentStyleType="text/css" height="519px" preserveAspectRatio="none" style="width:642px;height:519px;background:#FFFFFF;" version="1.1" viewBox="0 0 642 519" width="642px" zoomAndPan="magnify"><defs/><g><rect fill="#FFFFFF" height="316.1328" style="stroke:#181818;stroke-width:1.0;" width="10" x="325" y="112.4297"/><rect fill="#FFFFFF" height="287" style="stroke:#181818;stroke-width:1.0;" width="10" x="440.5" y="141.5625"/><rect fill="#FFFFFF" height="29.1328" style="stroke:#181818;stroke-width:1.0;" width="10" x="559.5" y="253.0938"/><rect fill="none" height="206.7344" style="stroke:#000000;stroke-width:1.5;" width="625" x="10" y="214.8281"/><line style="stroke:#181818;stroke-width:0.5;stroke-dasharray:5.0,5.0;" x1="39" x2="39" y1="81.2969" y2="438.5625"/><line style="stroke:#181818;stroke-width:0.5;stroke-dasharray:5.0,5.0;" x1="330" x2="330" y1="81.2969" y2="438.5625"/><line style="stroke:#181818;stroke-width:0.5;stroke-dasharray:5.0,5.0;" x1="445" x2="445" y1="81.2969" y2="438.5625"/><line style="stroke:#181818;stroke-width:0.5;stroke-dasharray:5.0,5.0;" x1="564" x2="564" y1="81.2969" y2="438.5625"/><text fill="#000000" font-family="sans-serif" font-size="14" lengthAdjust="spacing" textLength="32" x="20" y="77.9951">User</text><ellipse cx="39" cy="13.5" fill="#E2E2F0" rx="8" ry="8" style="stroke:#181818;stroke-width:0.5;"/><path d="M39,21.5 L39,48.5 M26,29.5 L52,29.5 M39,48.5 L26,63.5 M39,48.5 L52,63.5 " fill="none" style="stroke:#181818;stroke-width:0.5;"/><text fill="#000000" font-family="sans-serif" font-size="14" lengthAdjust="spacing" textLength="32" x="20" y="450.5576">User</text><ellipse cx="39" cy="462.3594" fill="#E2E2F0" rx="8" ry="8" style="stroke:#181818;stroke-width:0.5;"/><path d="M39,470.3594 L39,497.3594 M26,478.3594 L52,478.3594 M39,497.3594 L26,512.3594 M39,497.3594 L52,512.3594 " fill="none" style="stroke:#181818;stroke-width:0.5;"/><rect fill="#E2E2F0" height="30.2969" rx="2.5" ry="2.5" style="stroke:#181818;stroke-width:0.5;" width="114" x="273" y="50"/><text fill="#000000" font-family="sans-serif" font-size="14" lengthAdjust="spacing" textLength="100" x="280" y="69.9951">TaskController</text><rect fill="#E2E2F0" height="30.2969" rx="2.5" ry="2.5" style="stroke:#181818;stroke-width:0.5;" width="114" x="273" y="437.5625"/><text fill="#000000" font-family="sans-serif" font-size="14" lengthAdjust="spacing" textLength="100" x="280" y="457.5576">TaskController</text><rect fill="#E2E2F0" height="30.2969" rx="2.5" ry="2.5" style="stroke:#181818;stroke-width:0.5;" width="97" x="397" y="50"/><text fill="#000000" font-family="sans-serif" font-size="14" lengthAdjust="spacing" textLength="83" x="404" y="69.9951">TaskService</text><rect fill="#E2E2F0" height="30.2969" rx="2.5" ry="2.5" style="stroke:#181818;stroke-width:0.5;" width="97" x="397" y="437.5625"/><text fill="#000000" font-family="sans-serif" font-size="14" lengthAdjust="spacing" textLength="83" x="404" y="457.5576">TaskService</text><rect fill="#E2E2F0" height="30.2969" rx="2.5" ry="2.5" style="stroke:#181818;stroke-width:0.5;" width="121" x="504" y="50"/><text fill="#000000" font-family="sans-serif" font-size="14" lengthAdjust="spacing" textLength="107" x="511" y="69.9951">TaskRepository</text><rect fill="#E2E2F0" height="30.2969" rx="2.5" ry="2.5" style="stroke:#181818;stroke-width:0.5;" width="121" x="504" y="437.5625"/><text fill="#000000" font-family="sans-serif" font-size="14" lengthAdjust="spacing" textLength="107" x="511" y="457.5576">TaskRepository</text><rect fill="#FFFFFF" height="316.1328" style="stroke:#181818;stroke-width:1.0;" width="10" x="325" y="112.4297"/><rect fill="#FFFFFF" height="287" style="stroke:#181818;stroke-width:1.0;" width="10" x="440.5" y="141.5625"/><rect fill="#FFFFFF" height="29.1328" style="stroke:#181818;stroke-width:1.0;" width="10" x="559.5" y="253.0938"/><polygon fill="#181818" points="313,108.4297,323,112.4297,313,116.4297,317,112.4297" style="stroke:#181818;stroke-width:1.0;"/><line style="stroke:#181818;stroke-width:1.0;" x1="39" x2="319" y1="112.4297" y2="112.4297"/><text fill="#000000" font-family="sans-serif" font-size="13" lengthAdjust="spacing" textLength="114" x="46" y="107.3638">DELETE /task/{id}</text><polygon fill="#181818" points="428.5,137.5625,438.5,141.5625,428.5,145.5625,432.5,141.5625" style="stroke:#181818;stroke-width:1.0;"/><line style="stroke:#181818;stroke-width:1.0;" x1="335" x2="434.5" y1="141.5625" y2="141.5625"/><text fill="#000000" font-family="sans-serif" font-size="13" lengthAdjust="spacing" textLength="61" x="342" y="136.4966">delete(id)</text><polygon fill="#181818" points="552.5,166.6953,562.5,170.6953,552.5,174.6953,556.5,170.6953" style="stroke:#181818;stroke-width:1.0;"/><line style="stroke:#181818;stroke-width:1.0;" x1="450.5" x2="558.5" y1="170.6953" y2="170.6953"/><text fill="#000000" font-family="sans-serif" font-size="13" lengthAdjust="spacing" textLength="85" x="457.5" y="165.6294">existsById(id)</text><polygon fill="#181818" points="461.5,195.8281,451.5,199.8281,461.5,203.8281,457.5,199.8281" style="stroke:#181818;stroke-width:1.0;"/><line style="stroke:#181818;stroke-width:1.0;stroke-dasharray:2.0,2.0;" x1="455.5" x2="563.5" y1="199.8281" y2="199.8281"/><text fill="#000000" font-family="sans-serif" font-size="13" lengthAdjust="spacing" textLength="51" x="467.5" y="194.7622">boolean</text><path d="M10,214.8281 L74,214.8281 L74,221.9609 L64,231.9609 L10,231.9609 L10,214.8281 " fill="#EEEEEE" style="stroke:#000000;stroke-width:1.5;"/><rect fill="none" height="206.7344" style="stroke:#000000;stroke-width:1.5;" width="625" x="10" y="214.8281"/><text fill="#000000" font-family="sans-serif" font-size="13" font-weight="bold" lengthAdjust="spacing" textLength="19" x="25" y="227.895">alt</text><text fill="#000000" font-family="sans-serif" font-size="11" font-weight="bold" lengthAdjust="spacing" textLength="82" x="89" y="227.0386">[Task exists]</text><polygon fill="#181818" points="547.5,249.0938,557.5,253.0938,547.5,257.0938,551.5,253.0938" style="stroke:#181818;stroke-width:1.0;"/><line style="stroke:#181818;stroke-width:1.0;" x1="450.5" x2="553.5" y1="253.0938" y2="253.0938"/><text fill="#000000" font-family="sans-serif" font-size="13" lengthAdjust="spacing" textLength="88" x="457.5" y="248.0278">deleteById(id)</text><polygon fill="#181818" points="461.5,278.2266,451.5,282.2266,461.5,286.2266,457.5,282.2266" style="stroke:#181818;stroke-width:1.0;"/><line style="stroke:#181818;stroke-width:1.0;stroke-dasharray:2.0,2.0;" x1="455.5" x2="563.5" y1="282.2266" y2="282.2266"/><text fill="#000000" font-family="sans-serif" font-size="13" lengthAdjust="spacing" textLength="26" x="467.5" y="277.1606">void</text><polygon fill="#181818" points="346,307.3594,336,311.3594,346,315.3594,342,311.3594" style="stroke:#181818;stroke-width:1.0;"/><line style="stroke:#181818;stroke-width:1.0;stroke-dasharray:2.0,2.0;" x1="340" x2="439.5" y1="311.3594" y2="311.3594"/><text fill="#000000" font-family="sans-serif" font-size="13" lengthAdjust="spacing" textLength="26" x="352" y="306.2935">true</text><polygon fill="#181818" points="50,336.4922,40,340.4922,50,344.4922,46,340.4922" style="stroke:#181818;stroke-width:1.0;"/><line style="stroke:#181818;stroke-width:1.0;stroke-dasharray:2.0,2.0;" x1="44" x2="324" y1="340.4922" y2="340.4922"/><text fill="#000000" font-family="sans-serif" font-size="13" lengthAdjust="spacing" textLength="262" x="56" y="335.4263">HTTP 200 (Tarefa deletada com sucesso)</text><line style="stroke:#000000;stroke-width:1.0;stroke-dasharray:2.0,2.0;" x1="10" x2="635" y1="349.4922" y2="349.4922"/><text fill="#000000" font-family="sans-serif" font-size="11" font-weight="bold" lengthAdjust="spacing" textLength="106" x="15" y="359.7026">[Task not found]</text><polygon fill="#181818" points="346,380.4297,336,384.4297,346,388.4297,342,384.4297" style="stroke:#181818;stroke-width:1.0;"/><line style="stroke:#181818;stroke-width:1.0;stroke-dasharray:2.0,2.0;" x1="340" x2="439.5" y1="384.4297" y2="384.4297"/><text fill="#000000" font-family="sans-serif" font-size="13" lengthAdjust="spacing" textLength="30" x="352" y="379.3638">false</text><polygon fill="#181818" points="50,409.5625,40,413.5625,50,417.5625,46,413.5625" style="stroke:#181818;stroke-width:1.0;"/><line style="stroke:#181818;stroke-width:1.0;stroke-dasharray:2.0,2.0;" x1="44" x2="324" y1="413.5625" y2="413.5625"/><text fill="#000000" font-family="sans-serif" font-size="13" lengthAdjust="spacing" textLength="219" x="56" y="408.4966">HTTP 404 (Tarefa n&#227;o encontrada)</text><!--SRC=[XP5DJiGm38NtEONLrSnYD1MQLHSiW4eWiK1G3c0ILue8SPMa5IF4QJWA5oFzcJQ3LCWkplVydXsKWHqyUtAYGHUqr0tQ0DTiWsDZo05wo2hqhqifEqEVo7LQqinDztFeaHhsEbeTPsufPKBq0M1tcVWMS5FUbrK9-n3X_OTMdm9bq1q6IZ2H98twoRm0HOO2RRJQBghfKOXJv2XOKXH0xze7VtMyKuCkoRnBMxym6q8h19e0_IIJK40yAwt7E7FhdfnZBTnGNxFjMAi1KBGcdSr_RJAubWOWNLPa-gqNS5jL3t2Hvx2fq56DOrXK29BVmBUIlEUj8EDf7DToW9fRg_uqhJ4A_d4zv8VPrNv_CP2LFHpDes4q4CcmoQSdrTEd_W00]--></g></svg>