<?xml version="1.0" encoding="us-ascii" standalone="no"?><svg xmlns="http://www.w3.org/2000/svg" xmlns:xlink="http://www.w3.org/1999/xlink" contentStyleType="text/css" height="788px" preserveAspectRatio="none" style="width:1023px;height:788px;background:#FFFFFF;" version="1.1" viewBox="0 0 1023 788" width="1023px" zoomAndPan="magnify"><defs/><g><rect fill="#FFFFFF" height="585.0625" style="stroke:#181818;stroke-width:1.0;" width="10" x="317" y="112.4297"/><rect fill="#FFFFFF" height="511.7969" style="stroke:#181818;stroke-width:1.0;" width="10" x="481" y="141.5625"/><rect fill="#FFFFFF" height="29.1328" style="stroke:#181818;stroke-width:1.0;" width="10" x="796" y="463.7578"/><rect fill="#FFFFFF" height="29.1328" style="stroke:#181818;stroke-width:1.0;" width="10" x="934" y="522.0234"/><rect fill="none" height="475.6641" style="stroke:#000000;stroke-width:1.5;" width="1006.5" x="10" y="214.8281"/><line style="stroke:#181818;stroke-width:0.5;stroke-dasharray:5.0,5.0;" x1="39" x2="39" y1="81.2969" y2="707.4922"/><line style="stroke:#181818;stroke-width:0.5;stroke-dasharray:5.0,5.0;" x1="322" x2="322" y1="81.2969" y2="707.4922"/><line style="stroke:#181818;stroke-width:0.5;stroke-dasharray:5.0,5.0;" x1="485.5" x2="485.5" y1="81.2969" y2="707.4922"/><line style="stroke:#181818;stroke-width:0.5;stroke-dasharray:5.0,5.0;" x1="800.5" x2="800.5" y1="81.2969" y2="707.4922"/><line style="stroke:#181818;stroke-width:0.5;stroke-dasharray:5.0,5.0;" x1="938.5" x2="938.5" y1="81.2969" y2="707.4922"/><text fill="#000000" font-family="sans-serif" font-size="14" lengthAdjust="spacing" textLength="32" x="20" y="77.9951">User</text><ellipse cx="39" cy="13.5" fill="#E2E2F0" rx="8" ry="8" style="stroke:#181818;stroke-width:0.5;"/><path d="M39,21.5 L39,48.5 M26,29.5 L52,29.5 M39,48.5 L26,63.5 M39,48.5 L52,63.5 " fill="none" style="stroke:#181818;stroke-width:0.5;"/><text fill="#000000" font-family="sans-serif" font-size="14" lengthAdjust="spacing" textLength="32" x="20" y="719.4873">User</text><ellipse cx="39" cy="731.2891" fill="#E2E2F0" rx="8" ry="8" style="stroke:#181818;stroke-width:0.5;"/><path d="M39,739.2891 L39,766.2891 M26,747.2891 L52,747.2891 M39,766.2891 L26,781.2891 M39,766.2891 L52,781.2891 " fill="none" style="stroke:#181818;stroke-width:0.5;"/><rect fill="#E2E2F0" height="30.2969" rx="2.5" ry="2.5" style="stroke:#181818;stroke-width:0.5;" width="114" x="265" y="50"/><text fill="#000000" font-family="sans-serif" font-size="14" lengthAdjust="spacing" textLength="100" x="272" y="69.9951">TaskController</text><rect fill="#E2E2F0" height="30.2969" rx="2.5" ry="2.5" style="stroke:#181818;stroke-width:0.5;" width="114" x="265" y="706.4922"/><text fill="#000000" font-family="sans-serif" font-size="14" lengthAdjust="spacing" textLength="100" x="272" y="726.4873">TaskController</text><rect fill="#E2E2F0" height="30.2969" rx="2.5" ry="2.5" style="stroke:#181818;stroke-width:0.5;" width="97" x="437.5" y="50"/><text fill="#000000" font-family="sans-serif" font-size="14" lengthAdjust="spacing" textLength="83" x="444.5" y="69.9951">TaskService</text><rect fill="#E2E2F0" height="30.2969" rx="2.5" ry="2.5" style="stroke:#181818;stroke-width:0.5;" width="97" x="437.5" y="706.4922"/><text fill="#000000" font-family="sans-serif" font-size="14" lengthAdjust="spacing" textLength="83" x="444.5" y="726.4873">TaskService</text><rect fill="#E2E2F0" height="30.2969" rx="2.5" ry="2.5" style="stroke:#181818;stroke-width:0.5;" width="121" x="740.5" y="50"/><text fill="#000000" font-family="sans-serif" font-size="14" lengthAdjust="spacing" textLength="107" x="747.5" y="69.9951">TaskRepository</text><rect fill="#E2E2F0" height="30.2969" rx="2.5" ry="2.5" style="stroke:#181818;stroke-width:0.5;" width="121" x="740.5" y="706.4922"/><text fill="#000000" font-family="sans-serif" font-size="14" lengthAdjust="spacing" textLength="107" x="747.5" y="726.4873">TaskRepository</text><rect fill="#E2E2F0" height="30.2969" rx="2.5" ry="2.5" style="stroke:#181818;stroke-width:0.5;" width="135" x="871.5" y="50"/><text fill="#000000" font-family="sans-serif" font-size="14" lengthAdjust="spacing" textLength="121" x="878.5" y="69.9951">TaskReadMapper</text><rect fill="#E2E2F0" height="30.2969" rx="2.5" ry="2.5" style="stroke:#181818;stroke-width:0.5;" width="135" x="871.5" y="706.4922"/><text fill="#000000" font-family="sans-serif" font-size="14" lengthAdjust="spacing" textLength="121" x="878.5" y="726.4873">TaskReadMapper</text><rect fill="#FFFFFF" height="585.0625" style="stroke:#181818;stroke-width:1.0;" width="10" x="317" y="112.4297"/><rect fill="#FFFFFF" height="511.7969" style="stroke:#181818;stroke-width:1.0;" width="10" x="481" y="141.5625"/><rect fill="#FFFFFF" height="29.1328" style="stroke:#181818;stroke-width:1.0;" width="10" x="796" y="463.7578"/><rect fill="#FFFFFF" height="29.1328" style="stroke:#181818;stroke-width:1.0;" width="10" x="934" y="522.0234"/><polygon fill="#181818" points="305,108.4297,315,112.4297,305,116.4297,309,112.4297" style="stroke:#181818;stroke-width:1.0;"/><line style="stroke:#181818;stroke-width:1.0;" x1="39" x2="311" y1="112.4297" y2="112.4297"/><text fill="#000000" font-family="sans-serif" font-size="13" lengthAdjust="spacing" textLength="91" x="46" y="107.3638">PUT /task/{id}</text><polygon fill="#181818" points="469,137.5625,479,141.5625,469,145.5625,473,141.5625" style="stroke:#181818;stroke-width:1.0;"/><line style="stroke:#181818;stroke-width:1.0;" x1="327" x2="475" y1="141.5625" y2="141.5625"/><text fill="#000000" font-family="sans-serif" font-size="13" lengthAdjust="spacing" textLength="135" x="334" y="136.4966">edit(id, updatedTask)</text><polygon fill="#181818" points="789,166.6953,799,170.6953,789,174.6953,793,170.6953" style="stroke:#181818;stroke-width:1.0;"/><line style="stroke:#181818;stroke-width:1.0;" x1="491" x2="795" y1="170.6953" y2="170.6953"/><text fill="#000000" font-family="sans-serif" font-size="13" lengthAdjust="spacing" textLength="71" x="498" y="165.6294">findById(id)</text><polygon fill="#181818" points="502,195.8281,492,199.8281,502,203.8281,498,199.8281" style="stroke:#181818;stroke-width:1.0;"/><line style="stroke:#181818;stroke-width:1.0;stroke-dasharray:2.0,2.0;" x1="496" x2="800" y1="199.8281" y2="199.8281"/><text fill="#000000" font-family="sans-serif" font-size="13" lengthAdjust="spacing" textLength="104" x="508" y="194.7622">Optional&lt;Task&gt;</text><path d="M10,214.8281 L74,214.8281 L74,221.9609 L64,231.9609 L10,231.9609 L10,214.8281 " fill="#EEEEEE" style="stroke:#000000;stroke-width:1.5;"/><rect fill="none" height="475.6641" style="stroke:#000000;stroke-width:1.5;" width="1006.5" x="10" y="214.8281"/><text fill="#000000" font-family="sans-serif" font-size="13" font-weight="bold" lengthAdjust="spacing" textLength="19" x="25" y="227.895">alt</text><text fill="#000000" font-family="sans-serif" font-size="11" font-weight="bold" lengthAdjust="spacing" textLength="81" x="89" y="227.0386">[Task found]</text><line style="stroke:#181818;stroke-width:1.0;" x1="491" x2="533" y1="253.0938" y2="253.0938"/><line style="stroke:#181818;stroke-width:1.0;" x1="533" x2="533" y1="253.0938" y2="266.0938"/><line style="stroke:#181818;stroke-width:1.0;" x1="492" x2="533" y1="266.0938" y2="266.0938"/><polygon fill="#181818" points="502,262.0938,492,266.0938,502,270.0938,498,266.0938" style="stroke:#181818;stroke-width:1.0;"/><text fill="#000000" font-family="sans-serif" font-size="13" lengthAdjust="spacing" textLength="145" x="498" y="248.0278">get Task from Optional</text><line style="stroke:#181818;stroke-width:1.0;" x1="491" x2="533" y1="295.2266" y2="295.2266"/><line style="stroke:#181818;stroke-width:1.0;" x1="533" x2="533" y1="295.2266" y2="308.2266"/><line style="stroke:#181818;stroke-width:1.0;" x1="492" x2="533" y1="308.2266" y2="308.2266"/><polygon fill="#181818" points="502,304.2266,492,308.2266,502,312.2266,498,308.2266" style="stroke:#181818;stroke-width:1.0;"/><text fill="#000000" font-family="sans-serif" font-size="13" lengthAdjust="spacing" textLength="199" x="498" y="290.1606">setTitle(updatedTask.getTitle())</text><line style="stroke:#181818;stroke-width:1.0;" x1="491" x2="533" y1="337.3594" y2="337.3594"/><line style="stroke:#181818;stroke-width:1.0;" x1="533" x2="533" y1="337.3594" y2="350.3594"/><line style="stroke:#181818;stroke-width:1.0;" x1="492" x2="533" y1="350.3594" y2="350.3594"/><polygon fill="#181818" points="502,346.3594,492,350.3594,502,354.3594,498,350.3594" style="stroke:#181818;stroke-width:1.0;"/><text fill="#000000" font-family="sans-serif" font-size="13" lengthAdjust="spacing" textLength="291" x="498" y="332.2935">setDescription(updatedTask.getDescription())</text><line style="stroke:#181818;stroke-width:1.0;" x1="491" x2="533" y1="379.4922" y2="379.4922"/><line style="stroke:#181818;stroke-width:1.0;" x1="533" x2="533" y1="379.4922" y2="392.4922"/><line style="stroke:#181818;stroke-width:1.0;" x1="492" x2="533" y1="392.4922" y2="392.4922"/><polygon fill="#181818" points="502,388.4922,492,392.4922,502,396.4922,498,392.4922" style="stroke:#181818;stroke-width:1.0;"/><text fill="#000000" font-family="sans-serif" font-size="13" lengthAdjust="spacing" textLength="231" x="498" y="374.4263">setStatus(updatedTask.getStatus())</text><line style="stroke:#181818;stroke-width:1.0;" x1="491" x2="533" y1="421.625" y2="421.625"/><line style="stroke:#181818;stroke-width:1.0;" x1="533" x2="533" y1="421.625" y2="434.625"/><line style="stroke:#181818;stroke-width:1.0;" x1="492" x2="533" y1="434.625" y2="434.625"/><polygon fill="#181818" points="502,430.625,492,434.625,502,438.625,498,434.625" style="stroke:#181818;stroke-width:1.0;"/><text fill="#000000" font-family="sans-serif" font-size="13" lengthAdjust="spacing" textLength="235" x="498" y="416.5591">setPriority(updatedTask.getPriority())</text><polygon fill="#181818" points="784,459.7578,794,463.7578,784,467.7578,788,463.7578" style="stroke:#181818;stroke-width:1.0;"/><line style="stroke:#181818;stroke-width:1.0;" x1="491" x2="790" y1="463.7578" y2="463.7578"/><text fill="#000000" font-family="sans-serif" font-size="13" lengthAdjust="spacing" textLength="67" x="498" y="458.6919">save(task)</text><polygon fill="#181818" points="502,488.8906,492,492.8906,502,496.8906,498,492.8906" style="stroke:#181818;stroke-width:1.0;"/><line style="stroke:#181818;stroke-width:1.0;stroke-dasharray:2.0,2.0;" x1="496" x2="800" y1="492.8906" y2="492.8906"/><text fill="#000000" font-family="sans-serif" font-size="13" lengthAdjust="spacing" textLength="29" x="508" y="487.8247">Task</text><polygon fill="#181818" points="922,518.0234,932,522.0234,922,526.0234,926,522.0234" style="stroke:#181818;stroke-width:1.0;"/><line style="stroke:#181818;stroke-width:1.0;" x1="491" x2="928" y1="522.0234" y2="522.0234"/><text fill="#000000" font-family="sans-serif" font-size="13" lengthAdjust="spacing" textLength="182" x="498" y="516.9575">mapToReadTask(savedTask)</text><polygon fill="#181818" points="502,547.1563,492,551.1563,502,555.1563,498,551.1563" style="stroke:#181818;stroke-width:1.0;"/><line style="stroke:#181818;stroke-width:1.0;stroke-dasharray:2.0,2.0;" x1="496" x2="938" y1="551.1563" y2="551.1563"/><text fill="#000000" font-family="sans-serif" font-size="13" lengthAdjust="spacing" textLength="61" x="508" y="546.0903">ReadTask</text><polygon fill="#181818" points="338,576.2891,328,580.2891,338,584.2891,334,580.2891" style="stroke:#181818;stroke-width:1.0;"/><line style="stroke:#181818;stroke-width:1.0;stroke-dasharray:2.0,2.0;" x1="332" x2="480" y1="580.2891" y2="580.2891"/><text fill="#000000" font-family="sans-serif" font-size="13" lengthAdjust="spacing" textLength="61" x="344" y="575.2231">ReadTask</text><polygon fill="#181818" points="50,605.4219,40,609.4219,50,613.4219,46,609.4219" style="stroke:#181818;stroke-width:1.0;"/><line style="stroke:#181818;stroke-width:1.0;stroke-dasharray:2.0,2.0;" x1="44" x2="316" y1="609.4219" y2="609.4219"/><text fill="#000000" font-family="sans-serif" font-size="13" lengthAdjust="spacing" textLength="254" x="56" y="604.356">HTTP 200 (Tarefa editada com sucesso)</text><line style="stroke:#000000;stroke-width:1.0;stroke-dasharray:2.0,2.0;" x1="10" x2="1016.5" y1="618.4219" y2="618.4219"/><text fill="#000000" font-family="sans-serif" font-size="11" font-weight="bold" lengthAdjust="spacing" textLength="106" x="15" y="628.6323">[Task not found]</text><polygon fill="#181818" points="338,649.3594,328,653.3594,338,657.3594,334,653.3594" style="stroke:#181818;stroke-width:1.0;"/><line style="stroke:#181818;stroke-width:1.0;stroke-dasharray:2.0,2.0;" x1="332" x2="485" y1="653.3594" y2="653.3594"/><text fill="#000000" font-family="sans-serif" font-size="13" lengthAdjust="spacing" textLength="22" x="344" y="648.2935">null</text><polygon fill="#181818" points="50,678.4922,40,682.4922,50,686.4922,46,682.4922" style="stroke:#181818;stroke-width:1.0;"/><line style="stroke:#181818;stroke-width:1.0;stroke-dasharray:2.0,2.0;" x1="44" x2="316" y1="682.4922" y2="682.4922"/><text fill="#000000" font-family="sans-serif" font-size="13" lengthAdjust="spacing" textLength="219" x="56" y="677.4263">HTTP 404 (Tarefa n&#227;o encontrada)</text><!--SRC=[VLFBJiCm4BpxArOz9HBG2d6AK0_00Gw8ggGVi8gtbKLgH_QcKeNu6Zw57yDEyt02RKx9P6PdLXvZmSR2nf4L5LfMXQfGCpmQpTQK9Lb01xCStSS0pKRKTx87LL3FQx_7f3LLnYblTUnv0pIclc9LHRPhGdc2PaA4d72zZE9biDhaC6VFd7yg-IMmO7L0feWZecsyk0sO0Kd5YP9NK5VIAsImIuS1BK-8RaEl7K9di5LQFXnVf1-HYcZ1wzZZhM9bD9RtOVXI22mPmYjiJQsb0Fz4utlPZZgQDVj-o5cw8yuLbvH4czpiEZ1DBmcVo1LMDGvJUVphyf1tHgxTLD-YbwKhgunLV9oAU_olF3u5XmTAk3cvmEfFR-0q-Bdp2MuDGT8vQMHyAc86Uwno4vePv4c8q9Pd5E74Rh2sr2FhJZ-rZsIzzQJp8sdSRiyBToI3vpnVmUrY0KcEbhROb1qbGk7xvEg2d3EfeDBHgMVQy7-LdFZgkYodSRjhSZdAtUAkZw9_lWsGBWBPH_8nlAs8HaPNznS0]--></g></svg>