<svg width="400" height="800" viewBox="0 0 400 800" fill="none" xmlns="http://www.w3.org/2000/svg">
<g clip-path="url(#clip0_1_164)">
<path d="M378 1H21C9.9543 1 1 4.3854 1 8.5615V700.438C1 704.615 9.9543 708 21 708H378C389.046 708 398 704.615 398 700.438V8.5615C398 4.3854 389.046 1 378 1Z" fill="white" stroke="black" stroke-width="3"/>
<mask id="mask0_1_164" style="mask-type:luminance" maskUnits="userSpaceOnUse" x="0" y="0" width="400" height="800">
<path d="M400 0H0V800H400V0Z" fill="black"/>
<path d="M378 1H21C9.9543 1 1 9.9543 1 21V766C1 777.046 9.9543 786 21 786H378C389.046 786 398 777.046 398 766V21C398 9.9543 389.046 1 378 1Z" fill="white"/>
</mask>
<g mask="url(#mask0_1_164)">
<path d="M377 10H22C10.9543 10 2 10.4477 2 11V65C2 65.5523 10.9543 66 22 66H377C388.046 66 397 65.5523 397 65V11C397 10.4477 388.046 10 377 10Z" fill="#F3F3F3" stroke="black" stroke-width="2"/>
</g>
<path d="M177.918 31.6662V30.1818H188.281V31.6662H183.936V44H182.263V31.6662H177.918ZM201.948 37.0909C201.948 38.5483 201.684 39.8078 201.158 40.8693C200.632 41.9309 199.91 42.7495 198.992 43.3253C198.075 43.901 197.027 44.1889 195.848 44.1889C194.67 44.1889 193.622 43.901 192.704 43.3253C191.786 42.7495 191.064 41.9309 190.538 40.8693C190.012 39.8078 189.749 38.5483 189.749 37.0909C189.749 35.6335 190.012 34.3741 190.538 33.3125C191.064 32.2509 191.786 31.4323 192.704 30.8565C193.622 30.2808 194.67 29.9929 195.848 29.9929C197.027 29.9929 198.075 30.2808 198.992 30.8565C199.91 31.4323 200.632 32.2509 201.158 33.3125C201.684 34.3741 201.948 35.6335 201.948 37.0909ZM200.328 37.0909C200.328 35.8944 200.128 34.8846 199.728 34.0614C199.332 33.2383 198.794 32.6153 198.115 32.1925C197.441 31.7696 196.685 31.5582 195.848 31.5582C195.012 31.5582 194.254 31.7696 193.574 32.1925C192.9 32.6153 192.362 33.2383 191.962 34.0614C191.566 34.8846 191.368 35.8944 191.368 37.0909C191.368 38.2874 191.566 39.2972 191.962 40.1204C192.362 40.9435 192.9 41.5665 193.574 41.9893C194.254 42.4122 195.012 42.6236 195.848 42.6236C196.685 42.6236 197.441 42.4122 198.115 41.9893C198.794 41.5665 199.332 40.9435 199.728 40.1204C200.128 39.2972 200.328 38.2874 200.328 37.0909ZM209.025 44H204.761V30.1818H209.214C210.555 30.1818 211.702 30.4585 212.655 31.0117C213.609 31.5605 214.34 32.3499 214.848 33.38C215.356 34.4055 215.611 35.6335 215.611 37.0639C215.611 38.5033 215.354 39.7425 214.841 40.7816C214.329 41.8162 213.582 42.6123 212.601 43.1701C211.621 43.7234 210.429 44 209.025 44ZM206.434 42.5156H208.917C210.06 42.5156 211.007 42.2952 211.758 41.8544C212.509 41.4136 213.069 40.7861 213.438 39.9719C213.807 39.1578 213.991 38.1884 213.991 37.0639C213.991 35.9484 213.809 34.988 213.445 34.1829C213.08 33.3732 212.536 32.7525 211.812 32.3207C211.088 31.8844 210.186 31.6662 209.106 31.6662H206.434V42.5156ZM230.077 37.0909C230.077 38.5483 229.813 39.8078 229.287 40.8693C228.761 41.9309 228.039 42.7495 227.121 43.3253C226.204 43.901 225.156 44.1889 223.977 44.1889C222.799 44.1889 221.751 43.901 220.833 43.3253C219.915 42.7495 219.193 41.9309 218.667 40.8693C218.141 39.8078 217.878 38.5483 217.878 37.0909C217.878 35.6335 218.141 34.3741 218.667 33.3125C219.193 32.2509 219.915 31.4323 220.833 30.8565C221.751 30.2808 222.799 29.9929 223.977 29.9929C225.156 29.9929 226.204 30.2808 227.121 30.8565C228.039 31.4323 228.761 32.2509 229.287 33.3125C229.813 34.3741 230.077 35.6335 230.077 37.0909ZM228.457 37.0909C228.457 35.8944 228.257 34.8846 227.857 34.0614C227.461 33.2383 226.923 32.6153 226.244 32.1925C225.569 31.7696 224.814 31.5582 223.977 31.5582C223.14 31.5582 222.383 31.7696 221.703 32.1925C221.029 32.6153 220.491 33.2383 220.091 34.0614C219.695 34.8846 219.497 35.8944 219.497 37.0909C219.497 38.2874 219.695 39.2972 220.091 40.1204C220.491 40.9435 221.029 41.5665 221.703 41.9893C222.383 42.4122 223.14 42.6236 223.977 42.6236C224.814 42.6236 225.569 42.4122 226.244 41.9893C226.923 41.5665 227.461 40.9435 227.857 40.1204C228.257 39.2972 228.457 38.2874 228.457 37.0909Z" fill="black"/>
<path d="M177 47.7784H231.21V49.0739H177V47.7784Z" fill="black"/>
<path d="M50.5351 20H30.4649C22.4762 20 16 20.4477 16 21V57C16 57.5523 22.4762 58 30.4649 58H50.5351C58.5238 58 65 57.5523 65 57V21C65 20.4477 58.5238 20 50.5351 20Z" fill="white" stroke="black" stroke-width="2"/>
<path d="M37.0689 41.1648V40.3125L43.9297 36.8182V38.1818L38.667 40.7173L38.7096 40.6321V40.8452L38.667 40.7599L43.9297 43.2955V44.6591L37.0689 41.1648Z" fill="black"/>
<path d="M356 108H54C42.9543 108 34 108.448 34 109V145C34 145.552 42.9543 146 54 146H356C367.046 146 376 145.552 376 145V109C376 108.448 367.046 108 356 108Z" fill="white" stroke="black" stroke-width="2"/>
<path d="M43.8864 131H42.4091L46.6818 119.364H48.1364L52.4091 131H50.9318L47.4545 121.205H47.3636L43.8864 131ZM44.4318 126.455H50.3864V127.705H44.4318V126.455ZM57.3352 131.182C56.608 131.182 55.9659 130.998 55.4091 130.631C54.8523 130.259 54.4167 129.737 54.1023 129.062C53.7879 128.384 53.6307 127.583 53.6307 126.659C53.6307 125.742 53.7879 124.947 54.1023 124.273C54.4167 123.598 54.8542 123.078 55.4148 122.71C55.9754 122.343 56.6231 122.159 57.358 122.159C57.9261 122.159 58.375 122.254 58.7045 122.443C59.0379 122.629 59.2917 122.841 59.4659 123.08C59.6439 123.314 59.7822 123.508 59.8807 123.659H59.9943V119.364H61.3352V131H60.0398V129.659H59.8807C59.7822 129.818 59.642 130.019 59.4602 130.261C59.2784 130.5 59.0189 130.714 58.6818 130.903C58.3447 131.089 57.8958 131.182 57.3352 131.182ZM57.517 129.977C58.0549 129.977 58.5095 129.837 58.8807 129.557C59.2519 129.273 59.5341 128.881 59.7273 128.381C59.9205 127.877 60.017 127.295 60.017 126.636C60.017 125.985 59.9223 125.415 59.733 124.926C59.5436 124.434 59.2633 124.051 58.892 123.778C58.5208 123.502 58.0625 123.364 57.517 123.364C56.9489 123.364 56.4754 123.509 56.0966 123.801C55.7216 124.089 55.4394 124.481 55.25 124.977C55.0644 125.47 54.9716 126.023 54.9716 126.636C54.9716 127.258 55.0663 127.822 55.2557 128.33C55.4489 128.833 55.733 129.235 56.108 129.534C56.4867 129.83 56.9564 129.977 57.517 129.977ZM67.2727 131.182C66.5455 131.182 65.9034 130.998 65.3466 130.631C64.7898 130.259 64.3542 129.737 64.0398 129.062C63.7254 128.384 63.5682 127.583 63.5682 126.659C63.5682 125.742 63.7254 124.947 64.0398 124.273C64.3542 123.598 64.7917 123.078 65.3523 122.71C65.9129 122.343 66.5606 122.159 67.2955 122.159C67.8636 122.159 68.3125 122.254 68.642 122.443C68.9754 122.629 69.2292 122.841 69.4034 123.08C69.5814 123.314 69.7197 123.508 69.8182 123.659H69.9318V119.364H71.2727V131H69.9773V129.659H69.8182C69.7197 129.818 69.5795 130.019 69.3977 130.261C69.2159 130.5 68.9564 130.714 68.6193 130.903C68.2822 131.089 67.8333 131.182 67.2727 131.182ZM67.4545 129.977C67.9924 129.977 68.447 129.837 68.8182 129.557C69.1894 129.273 69.4716 128.881 69.6648 128.381C69.858 127.877 69.9545 127.295 69.9545 126.636C69.9545 125.985 69.8598 125.415 69.6705 124.926C69.4811 124.434 69.2008 124.051 68.8295 123.778C68.4583 123.502 68 123.364 67.4545 123.364C66.8864 123.364 66.4129 123.509 66.0341 123.801C65.6591 124.089 65.3769 124.481 65.1875 124.977C65.0019 125.47 64.9091 126.023 64.9091 126.636C64.9091 127.258 65.0038 127.822 65.1932 128.33C65.3864 128.833 65.6705 129.235 66.0455 129.534C66.4242 129.83 66.8939 129.977 67.4545 129.977ZM80.983 131.205C80.4299 131.205 79.928 131.1 79.4773 130.892C79.0265 130.68 78.6686 130.375 78.4034 129.977C78.1383 129.576 78.0057 129.091 78.0057 128.523C78.0057 128.023 78.1042 127.617 78.3011 127.307C78.4981 126.992 78.7614 126.746 79.0909 126.568C79.4205 126.39 79.7841 126.258 80.1818 126.17C80.5833 126.08 80.9867 126.008 81.392 125.955C81.9223 125.886 82.3523 125.835 82.6818 125.801C83.0152 125.763 83.2576 125.701 83.4091 125.614C83.5644 125.527 83.642 125.375 83.642 125.159V125.114C83.642 124.553 83.4886 124.117 83.1818 123.807C82.8788 123.496 82.4186 123.341 81.8011 123.341C81.161 123.341 80.6591 123.481 80.2955 123.761C79.9318 124.042 79.6761 124.341 79.5284 124.659L78.2557 124.205C78.483 123.674 78.786 123.261 79.1648 122.966C79.5473 122.667 79.964 122.458 80.4148 122.341C80.8693 122.22 81.3163 122.159 81.7557 122.159C82.036 122.159 82.358 122.193 82.7216 122.261C83.089 122.326 83.4432 122.46 83.7841 122.665C84.1288 122.869 84.4148 123.178 84.642 123.591C84.8693 124.004 84.983 124.557 84.983 125.25V131H83.642V129.818H83.5739C83.483 130.008 83.3314 130.21 83.1193 130.426C82.9072 130.642 82.625 130.826 82.2727 130.977C81.9205 131.129 81.4905 131.205 80.983 131.205ZM81.1875 130C81.7178 130 82.1648 129.896 82.5284 129.688C82.8958 129.479 83.1723 129.21 83.358 128.881C83.5473 128.551 83.642 128.205 83.642 127.841V126.614C83.5852 126.682 83.4602 126.744 83.267 126.801C83.0777 126.854 82.858 126.902 82.608 126.943C82.3617 126.981 82.1212 127.015 81.8864 127.045C81.6553 127.072 81.4678 127.095 81.3239 127.114C80.9754 127.159 80.6496 127.233 80.3466 127.335C80.0473 127.434 79.8049 127.583 79.6193 127.784C79.4375 127.981 79.3466 128.25 79.3466 128.591C79.3466 129.057 79.5189 129.409 79.8636 129.648C80.2121 129.883 80.6534 130 81.1875 130ZM95.7259 122.273V123.409H91.2031V122.273H95.7259ZM92.5213 120.182H93.8622V128.5C93.8622 128.879 93.9171 129.163 94.027 129.352C94.1406 129.538 94.2846 129.663 94.4588 129.727C94.6368 129.788 94.8243 129.818 95.0213 129.818C95.169 129.818 95.2902 129.811 95.3849 129.795C95.4796 129.777 95.5554 129.761 95.6122 129.75L95.8849 130.955C95.794 130.989 95.6671 131.023 95.5043 131.057C95.3414 131.095 95.1349 131.114 94.8849 131.114C94.5062 131.114 94.1349 131.032 93.7713 130.869C93.4115 130.706 93.1122 130.458 92.8736 130.125C92.6387 129.792 92.5213 129.371 92.5213 128.864V120.182ZM97.7429 131V122.273H99.0838V131H97.7429ZM98.4247 120.818C98.1634 120.818 97.938 120.729 97.7486 120.551C97.563 120.373 97.4702 120.159 97.4702 119.909C97.4702 119.659 97.563 119.445 97.7486 119.267C97.938 119.089 98.1634 119 98.4247 119C98.6861 119 98.9096 119.089 99.0952 119.267C99.2846 119.445 99.3793 119.659 99.3793 119.909C99.3793 120.159 99.2846 120.373 99.0952 120.551C98.9096 120.729 98.6861 120.818 98.4247 120.818ZM105.335 122.273V123.409H100.812V122.273H105.335ZM102.131 120.182H103.472V128.5C103.472 128.879 103.527 129.163 103.636 129.352C103.75 129.538 103.894 129.663 104.068 129.727C104.246 129.788 104.434 129.818 104.631 129.818C104.778 129.818 104.9 129.811 104.994 129.795C105.089 129.777 105.165 129.761 105.222 129.75L105.494 130.955C105.403 130.989 105.277 131.023 105.114 131.057C104.951 131.095 104.744 131.114 104.494 131.114C104.116 131.114 103.744 131.032 103.381 130.869C103.021 130.706 102.722 130.458 102.483 130.125C102.248 129.792 102.131 129.371 102.131 128.864V120.182ZM108.881 119.364V131H107.54V119.364H108.881ZM114.996 131.182C114.155 131.182 113.429 130.996 112.82 130.625C112.214 130.25 111.746 129.727 111.416 129.057C111.09 128.383 110.928 127.598 110.928 126.705C110.928 125.811 111.09 125.023 111.416 124.341C111.746 123.655 112.204 123.121 112.791 122.739C113.382 122.352 114.071 122.159 114.859 122.159C115.314 122.159 115.763 122.235 116.206 122.386C116.649 122.538 117.053 122.784 117.416 123.125C117.78 123.462 118.07 123.909 118.286 124.466C118.501 125.023 118.609 125.708 118.609 126.523V127.091H111.882V125.932H117.246C117.246 125.439 117.147 125 116.95 124.614C116.757 124.227 116.481 123.922 116.121 123.699C115.765 123.475 115.344 123.364 114.859 123.364C114.325 123.364 113.863 123.496 113.473 123.761C113.087 124.023 112.789 124.364 112.581 124.784C112.373 125.205 112.268 125.655 112.268 126.136V126.909C112.268 127.568 112.382 128.127 112.609 128.585C112.84 129.04 113.161 129.386 113.57 129.625C113.979 129.86 114.454 129.977 114.996 129.977C115.348 129.977 115.666 129.928 115.95 129.83C116.238 129.727 116.486 129.576 116.695 129.375C116.903 129.17 117.064 128.917 117.178 128.614L118.473 128.977C118.337 129.417 118.107 129.803 117.786 130.136C117.464 130.466 117.066 130.723 116.592 130.909C116.119 131.091 115.587 131.182 114.996 131.182Z" fill="#B9B9B9"/>
<path d="M34.6747 83.5906V81.1818H46.0234V83.5906H41.793V95H38.9052V83.5906H34.6747ZM47.8384 95V84.6364H50.7127V95H47.8384ZM49.2823 83.3004C48.855 83.3004 48.4884 83.1587 48.1825 82.8754C47.8812 82.5875 47.7305 82.2434 47.7305 81.843C47.7305 81.4472 47.8812 81.1076 48.1825 80.8242C48.4884 80.5363 48.855 80.3924 49.2823 80.3924C49.7096 80.3924 50.074 80.5363 50.3754 80.8242C50.6812 81.1076 50.8342 81.4472 50.8342 81.843C50.8342 82.2434 50.6812 82.5875 50.3754 82.8754C50.074 83.1587 49.7096 83.3004 49.2823 83.3004ZM58.5276 84.6364V86.7955H52.2865V84.6364H58.5276ZM53.7034 82.1534H56.5777V91.8153C56.5777 92.0807 56.6182 92.2876 56.6991 92.4361C56.7801 92.58 56.8925 92.6812 57.0365 92.7397C57.1849 92.7982 57.3559 92.8274 57.5493 92.8274C57.6842 92.8274 57.8192 92.8162 57.9541 92.7937C58.089 92.7667 58.1925 92.7464 58.2645 92.733L58.7165 94.8718C58.5726 94.9168 58.3702 94.9685 58.1093 95.027C57.8484 95.09 57.5313 95.1282 57.1579 95.1417C56.4652 95.1687 55.858 95.0765 55.3362 94.8651C54.8189 94.6536 54.4163 94.3253 54.1285 93.88C53.8406 93.4347 53.6989 92.8724 53.7034 92.1932V82.1534ZM63.4969 81.1818V95H60.6226V81.1818H63.4969ZM70.5224 95.2024C69.4563 95.2024 68.5387 94.9865 67.7695 94.5547C67.0049 94.1184 66.4156 93.5021 66.0018 92.706C65.5879 91.9053 65.381 90.9585 65.381 89.8654C65.381 88.7994 65.5879 87.8638 66.0018 87.0586C66.4156 86.2534 66.9981 85.6259 67.7493 85.1761C68.505 84.7263 69.3911 84.5014 70.4077 84.5014C71.0914 84.5014 71.7279 84.6116 72.3171 84.832C72.9109 85.0479 73.4281 85.3741 73.869 85.8104C74.3143 86.2467 74.6606 86.7955 74.908 87.4567C75.1554 88.1134 75.2791 88.8826 75.2791 89.7642V90.5536H66.5281V88.7724H72.5735C72.5735 88.3585 72.4835 87.992 72.3036 87.6726C72.1237 87.3532 71.8741 87.1036 71.5547 86.9237C71.2398 86.7392 70.8732 86.647 70.4549 86.647C70.0186 86.647 69.6317 86.7482 69.2944 86.9506C68.9615 87.1486 68.7006 87.4162 68.5117 87.7536C68.3228 88.0864 68.2261 88.4575 68.2216 88.8668V90.5604C68.2216 91.0732 68.3161 91.5162 68.505 91.8896C68.6984 92.2629 68.9705 92.5508 69.3214 92.7532C69.6722 92.9556 70.0883 93.0568 70.5696 93.0568C70.889 93.0568 71.1813 93.0118 71.4467 92.9219C71.7121 92.8319 71.9393 92.697 72.1282 92.517C72.3171 92.3371 72.4611 92.1167 72.56 91.8558L75.2184 92.0312C75.0835 92.67 74.8068 93.2277 74.3885 93.7045C73.9747 94.1768 73.4394 94.5457 72.7827 94.8111C72.1304 95.072 71.377 95.2024 70.5224 95.2024ZM84.8651 88.9545L85.0338 86.3434L82.8477 87.8075L81.9436 86.2152L84.2984 85.0682L81.9436 83.9212L82.8477 82.3288L85.0338 83.793L84.8651 81.1818H86.6801L86.5047 83.793L88.6908 82.3288L89.5949 83.9212L87.2469 85.0682L89.5949 86.2152L88.6908 87.8075L86.5047 86.3434L86.6801 88.9545H84.8651Z" fill="black"/>
<path d="M47.3931 184.02H44.4379C44.3839 183.637 44.2737 183.298 44.1072 183.001C43.9408 182.699 43.7272 182.443 43.4663 182.232C43.2054 182.02 42.904 181.858 42.5621 181.746C42.2248 181.633 41.8582 181.577 41.4624 181.577C40.7472 181.577 40.1242 181.755 39.5934 182.11C39.0626 182.461 38.651 182.974 38.3587 183.648C38.0663 184.319 37.9201 185.133 37.9201 186.091C37.9201 187.076 38.0663 187.904 38.3587 188.574C38.6555 189.244 39.0694 189.75 39.6001 190.092C40.1309 190.434 40.7449 190.605 41.4421 190.605C41.8335 190.605 42.1955 190.553 42.5284 190.45C42.8658 190.346 43.1649 190.195 43.4258 189.998C43.6867 189.795 43.9026 189.55 44.0735 189.262C44.2489 188.974 44.3704 188.646 44.4379 188.277L47.3931 188.29C47.3166 188.925 47.1255 189.536 46.8196 190.126C46.5182 190.71 46.1112 191.234 45.5984 191.698C45.0901 192.157 44.4828 192.521 43.7766 192.791C43.0749 193.056 42.281 193.189 41.3949 193.189C40.1624 193.189 39.0604 192.91 38.0888 192.352C37.1217 191.795 36.357 190.987 35.7947 189.93C35.237 188.873 34.9581 187.593 34.9581 186.091C34.9581 184.584 35.2415 183.302 35.8082 182.245C36.375 181.188 37.1442 180.383 38.1158 179.83C39.0874 179.272 40.1804 178.993 41.3949 178.993C42.1955 178.993 42.9377 179.105 43.6214 179.33C44.3097 179.555 44.9192 179.884 45.4499 180.315C45.9807 180.743 46.4125 181.267 46.7454 181.887C47.0827 182.508 47.2987 183.219 47.3931 184.02ZM54.1167 193.202C53.0686 193.202 52.1622 192.98 51.3975 192.534C50.6374 192.085 50.0504 191.459 49.6365 190.659C49.2227 189.854 49.0158 188.92 49.0158 187.859C49.0158 186.788 49.2227 185.853 49.6365 185.052C50.0504 184.247 50.6374 183.621 51.3975 183.176C52.1622 182.726 53.0686 182.501 54.1167 182.501C55.1647 182.501 56.0688 182.726 56.829 183.176C57.5937 183.621 58.1829 184.247 58.5968 185.052C59.0106 185.853 59.2175 186.788 59.2175 187.859C59.2175 188.92 59.0106 189.854 58.5968 190.659C58.1829 191.459 57.5937 192.085 56.829 192.534C56.0688 192.98 55.1647 193.202 54.1167 193.202ZM54.1301 190.976C54.6069 190.976 55.005 190.841 55.3244 190.571C55.6438 190.297 55.8844 189.923 56.0463 189.451C56.2128 188.979 56.296 188.441 56.296 187.838C56.296 187.236 56.2128 186.698 56.0463 186.226C55.8844 185.754 55.6438 185.38 55.3244 185.106C55.005 184.831 54.6069 184.694 54.1301 184.694C53.6489 184.694 53.244 184.831 52.9157 185.106C52.5918 185.38 52.3467 185.754 52.1802 186.226C52.0183 186.698 51.9373 187.236 51.9373 187.838C51.9373 188.441 52.0183 188.979 52.1802 189.451C52.3467 189.923 52.5918 190.297 52.9157 190.571C53.244 190.841 53.6489 190.976 54.1301 190.976ZM61.0865 193V182.636H63.8258V184.465H63.9473C64.1632 183.858 64.523 183.379 65.0268 183.028C65.5306 182.677 66.1333 182.501 66.8351 182.501C67.5458 182.501 68.1507 182.679 68.65 183.034C69.1493 183.385 69.4822 183.862 69.6486 184.465H69.7566C69.968 183.871 70.3503 183.397 70.9036 183.041C71.4614 182.681 72.1203 182.501 72.8805 182.501C73.8476 182.501 74.6325 182.81 75.2353 183.426C75.8425 184.038 76.1461 184.906 76.1461 186.03V193H73.2786V186.597C73.2786 186.021 73.1257 185.589 72.8198 185.301C72.5139 185.014 72.1316 184.87 71.6728 184.87C71.151 184.87 70.7439 185.036 70.4515 185.369C70.1592 185.697 70.013 186.131 70.013 186.671V193H67.2264V186.536C67.2264 186.028 67.0802 185.623 66.7878 185.322C66.4999 185.02 66.1199 184.87 65.6476 184.87C65.3282 184.87 65.0403 184.951 64.7839 185.113C64.532 185.27 64.3319 185.493 64.1834 185.781C64.035 186.064 63.9608 186.397 63.9608 186.779V193H61.0865ZM78.4165 193V182.636H81.1559V184.465H81.2773C81.4933 183.858 81.8531 183.379 82.3569 183.028C82.8607 182.677 83.4634 182.501 84.1651 182.501C84.8758 182.501 85.4808 182.679 85.9801 183.034C86.4794 183.385 86.8123 183.862 86.9787 184.465H87.0866C87.2981 183.871 87.6804 183.397 88.2337 183.041C88.7914 182.681 89.4504 182.501 90.2106 182.501C91.1777 182.501 91.9626 182.81 92.5653 183.426C93.1726 184.038 93.4762 184.906 93.4762 186.03V193H90.6087V186.597C90.6087 186.021 90.4557 185.589 90.1499 185.301C89.844 185.014 89.4616 184.87 89.0028 184.87C88.4811 184.87 88.074 185.036 87.7816 185.369C87.4892 185.697 87.343 186.131 87.343 186.671V193H84.5565V186.536C84.5565 186.028 84.4103 185.623 84.1179 185.322C83.83 185.02 83.4499 184.87 82.9776 184.87C82.6583 184.87 82.3704 184.951 82.114 185.113C81.8621 185.27 81.6619 185.493 81.5135 185.781C81.3651 186.064 81.2908 186.397 81.2908 186.779V193H78.4165ZM100.47 193.202C99.4036 193.202 98.486 192.987 97.7168 192.555C96.9521 192.118 96.3629 191.502 95.949 190.706C95.5352 189.905 95.3283 188.958 95.3283 187.865C95.3283 186.799 95.5352 185.864 95.949 185.059C96.3629 184.253 96.9454 183.626 97.6966 183.176C98.4522 182.726 99.3384 182.501 100.355 182.501C101.039 182.501 101.675 182.612 102.264 182.832C102.858 183.048 103.375 183.374 103.816 183.81C104.262 184.247 104.608 184.795 104.855 185.457C105.103 186.113 105.226 186.883 105.226 187.764V188.554H96.4753V186.772H102.521C102.521 186.359 102.431 185.992 102.251 185.673C102.071 185.353 101.821 185.104 101.502 184.924C101.187 184.739 100.82 184.647 100.402 184.647C99.9659 184.647 99.579 184.748 99.2417 184.951C98.9088 185.149 98.6479 185.416 98.459 185.754C98.2701 186.086 98.1734 186.458 98.1689 186.867V188.56C98.1689 189.073 98.2633 189.516 98.4522 189.89C98.6457 190.263 98.9178 190.551 99.2686 190.753C99.6195 190.956 100.036 191.057 100.517 191.057C100.836 191.057 101.129 191.012 101.394 190.922C101.659 190.832 101.887 190.697 102.075 190.517C102.264 190.337 102.408 190.117 102.507 189.856L105.166 190.031C105.031 190.67 104.754 191.228 104.336 191.705C103.922 192.177 103.387 192.546 102.73 192.811C102.078 193.072 101.324 193.202 100.47 193.202ZM109.976 187.009V193H107.102V182.636H109.841V184.465H109.963C110.192 183.862 110.577 183.385 111.117 183.034C111.656 182.679 112.311 182.501 113.08 182.501C113.8 182.501 114.427 182.659 114.963 182.974C115.498 183.289 115.914 183.738 116.211 184.323C116.508 184.903 116.656 185.596 116.656 186.401V193H113.782V186.914C113.786 186.28 113.624 185.785 113.296 185.43C112.968 185.07 112.516 184.89 111.94 184.89C111.553 184.89 111.211 184.973 110.914 185.14C110.622 185.306 110.392 185.549 110.226 185.868C110.064 186.183 109.981 186.563 109.976 187.009ZM124.434 182.636V184.795H118.193V182.636H124.434ZM119.61 180.153H122.484V189.815C122.484 190.081 122.524 190.288 122.605 190.436C122.686 190.58 122.799 190.681 122.943 190.74C123.091 190.798 123.262 190.827 123.456 190.827C123.59 190.827 123.725 190.816 123.86 190.794C123.995 190.767 124.099 190.746 124.171 190.733L124.623 192.872C124.479 192.917 124.276 192.969 124.016 193.027C123.755 193.09 123.438 193.128 123.064 193.142C122.371 193.169 121.764 193.076 121.242 192.865C120.725 192.654 120.323 192.325 120.035 191.88C119.747 191.435 119.605 190.872 119.61 190.193V180.153ZM134.799 185.592L132.168 185.754C132.123 185.529 132.026 185.326 131.878 185.146C131.729 184.962 131.534 184.816 131.291 184.708C131.052 184.595 130.767 184.539 130.434 184.539C129.988 184.539 129.613 184.634 129.307 184.822C129.001 185.007 128.848 185.254 128.848 185.565C128.848 185.812 128.947 186.021 129.145 186.192C129.343 186.363 129.683 186.5 130.164 186.604L132.04 186.982C133.047 187.188 133.798 187.521 134.293 187.98C134.788 188.439 135.035 189.042 135.035 189.788C135.035 190.468 134.835 191.064 134.435 191.576C134.039 192.089 133.495 192.489 132.802 192.777C132.114 193.061 131.32 193.202 130.42 193.202C129.048 193.202 127.955 192.917 127.141 192.346C126.331 191.77 125.857 190.987 125.718 189.998L128.545 189.849C128.63 190.267 128.837 190.587 129.165 190.807C129.494 191.023 129.914 191.131 130.427 191.131C130.931 191.131 131.336 191.034 131.642 190.841C131.952 190.643 132.109 190.389 132.114 190.078C132.109 189.818 131.999 189.604 131.783 189.438C131.567 189.267 131.234 189.136 130.785 189.046L128.99 188.689C127.978 188.486 127.224 188.135 126.73 187.636C126.239 187.137 125.994 186.5 125.994 185.727C125.994 185.061 126.174 184.487 126.534 184.006C126.898 183.525 127.409 183.154 128.066 182.893C128.727 182.632 129.5 182.501 130.387 182.501C131.695 182.501 132.726 182.778 133.477 183.331C134.232 183.885 134.673 184.638 134.799 185.592Z" fill="black"/>
<path d="M351 227H49C37.9543 227 29 229.922 29 233.526V468.474C29 472.078 37.9543 475 49 475H351C362.046 475 371 472.078 371 468.474V233.526C371 229.922 362.046 227 351 227Z" fill="white" stroke="black" stroke-width="2"/>
<path d="M43.8864 252H42.4091L46.6818 240.364H48.1364L52.4091 252H50.9318L47.4545 242.205H47.3636L43.8864 252ZM44.4318 247.455H50.3864V248.705H44.4318V247.455ZM57.3352 252.182C56.608 252.182 55.9659 251.998 55.4091 251.631C54.8523 251.259 54.4167 250.737 54.1023 250.062C53.7879 249.384 53.6307 248.583 53.6307 247.659C53.6307 246.742 53.7879 245.947 54.1023 245.273C54.4167 244.598 54.8542 244.078 55.4148 243.71C55.9754 243.343 56.6231 243.159 57.358 243.159C57.9261 243.159 58.375 243.254 58.7045 243.443C59.0379 243.629 59.2917 243.841 59.4659 244.08C59.6439 244.314 59.7822 244.508 59.8807 244.659H59.9943V240.364H61.3352V252H60.0398V250.659H59.8807C59.7822 250.818 59.642 251.019 59.4602 251.261C59.2784 251.5 59.0189 251.714 58.6818 251.903C58.3447 252.089 57.8958 252.182 57.3352 252.182ZM57.517 250.977C58.0549 250.977 58.5095 250.837 58.8807 250.557C59.2519 250.273 59.5341 249.881 59.7273 249.381C59.9205 248.877 60.017 248.295 60.017 247.636C60.017 246.985 59.9223 246.415 59.733 245.926C59.5436 245.434 59.2633 245.051 58.892 244.778C58.5208 244.502 58.0625 244.364 57.517 244.364C56.9489 244.364 56.4754 244.509 56.0966 244.801C55.7216 245.089 55.4394 245.481 55.25 245.977C55.0644 246.47 54.9716 247.023 54.9716 247.636C54.9716 248.258 55.0663 248.822 55.2557 249.33C55.4489 249.833 55.733 250.235 56.108 250.534C56.4867 250.83 56.9564 250.977 57.517 250.977ZM67.2727 252.182C66.5455 252.182 65.9034 251.998 65.3466 251.631C64.7898 251.259 64.3542 250.737 64.0398 250.062C63.7254 249.384 63.5682 248.583 63.5682 247.659C63.5682 246.742 63.7254 245.947 64.0398 245.273C64.3542 244.598 64.7917 244.078 65.3523 243.71C65.9129 243.343 66.5606 243.159 67.2955 243.159C67.8636 243.159 68.3125 243.254 68.642 243.443C68.9754 243.629 69.2292 243.841 69.4034 244.08C69.5814 244.314 69.7197 244.508 69.8182 244.659H69.9318V240.364H71.2727V252H69.9773V250.659H69.8182C69.7197 250.818 69.5795 251.019 69.3977 251.261C69.2159 251.5 68.9564 251.714 68.6193 251.903C68.2822 252.089 67.8333 252.182 67.2727 252.182ZM67.4545 250.977C67.9924 250.977 68.447 250.837 68.8182 250.557C69.1894 250.273 69.4716 249.881 69.6648 249.381C69.858 248.877 69.9545 248.295 69.9545 247.636C69.9545 246.985 69.8598 246.415 69.6705 245.926C69.4811 245.434 69.2008 245.051 68.8295 244.778C68.4583 244.502 68 244.364 67.4545 244.364C66.8864 244.364 66.4129 244.509 66.0341 244.801C65.6591 245.089 65.3769 245.481 65.1875 245.977C65.0019 246.47 64.9091 247.023 64.9091 247.636C64.9091 248.258 65.0038 248.822 65.1932 249.33C65.3864 249.833 65.6705 250.235 66.0455 250.534C66.4242 250.83 66.8939 250.977 67.4545 250.977ZM81.7102 252.182C80.983 252.182 80.3409 251.998 79.7841 251.631C79.2273 251.259 78.7917 250.737 78.4773 250.062C78.1629 249.384 78.0057 248.583 78.0057 247.659C78.0057 246.742 78.1629 245.947 78.4773 245.273C78.7917 244.598 79.2292 244.078 79.7898 243.71C80.3504 243.343 80.9981 243.159 81.733 243.159C82.3011 243.159 82.75 243.254 83.0795 243.443C83.4129 243.629 83.6667 243.841 83.8409 244.08C84.0189 244.314 84.1572 244.508 84.2557 244.659H84.3693V240.364H85.7102V252H84.4148V250.659H84.2557C84.1572 250.818 84.017 251.019 83.8352 251.261C83.6534 251.5 83.3939 251.714 83.0568 251.903C82.7197 252.089 82.2708 252.182 81.7102 252.182ZM81.892 250.977C82.4299 250.977 82.8845 250.837 83.2557 250.557C83.6269 250.273 83.9091 249.881 84.1023 249.381C84.2955 248.877 84.392 248.295 84.392 247.636C84.392 246.985 84.2973 246.415 84.108 245.926C83.9186 245.434 83.6383 245.051 83.267 244.778C82.8958 244.502 82.4375 244.364 81.892 244.364C81.3239 244.364 80.8504 244.509 80.4716 244.801C80.0966 245.089 79.8144 245.481 79.625 245.977C79.4394 246.47 79.3466 247.023 79.3466 247.636C79.3466 248.258 79.4413 248.822 79.6307 249.33C79.8239 249.833 80.108 250.235 80.483 250.534C80.8617 250.83 81.3314 250.977 81.892 250.977ZM92.0114 252.182C91.1705 252.182 90.4451 251.996 89.8352 251.625C89.2292 251.25 88.7614 250.727 88.4318 250.057C88.1061 249.383 87.9432 248.598 87.9432 247.705C87.9432 246.811 88.1061 246.023 88.4318 245.341C88.7614 244.655 89.2197 244.121 89.8068 243.739C90.3977 243.352 91.0871 243.159 91.875 243.159C92.3295 243.159 92.7784 243.235 93.2216 243.386C93.6648 243.538 94.0682 243.784 94.4318 244.125C94.7955 244.462 95.0852 244.909 95.3011 245.466C95.517 246.023 95.625 246.708 95.625 247.523V248.091H88.8977V246.932H94.2614C94.2614 246.439 94.1629 246 93.9659 245.614C93.7727 245.227 93.4962 244.922 93.1364 244.699C92.7803 244.475 92.3598 244.364 91.875 244.364C91.3409 244.364 90.8788 244.496 90.4886 244.761C90.1023 245.023 89.8049 245.364 89.5966 245.784C89.3883 246.205 89.2841 246.655 89.2841 247.136V247.909C89.2841 248.568 89.3977 249.127 89.625 249.585C89.8561 250.04 90.1761 250.386 90.5852 250.625C90.9943 250.86 91.4697 250.977 92.0114 250.977C92.3636 250.977 92.6818 250.928 92.9659 250.83C93.2538 250.727 93.5019 250.576 93.7102 250.375C93.9186 250.17 94.0795 249.917 94.1932 249.614L95.4886 249.977C95.3523 250.417 95.1231 250.803 94.8011 251.136C94.4792 251.466 94.0814 251.723 93.608 251.909C93.1345 252.091 92.6023 252.182 92.0114 252.182ZM103.847 245.227L102.642 245.568C102.566 245.367 102.455 245.172 102.307 244.983C102.163 244.79 101.966 244.631 101.716 244.506C101.466 244.381 101.146 244.318 100.756 244.318C100.222 244.318 99.7765 244.441 99.4205 244.688C99.0682 244.93 98.892 245.239 98.892 245.614C98.892 245.947 99.0133 246.21 99.2557 246.403C99.4981 246.597 99.8769 246.758 100.392 246.886L101.688 247.205C102.468 247.394 103.049 247.684 103.432 248.074C103.814 248.46 104.006 248.958 104.006 249.568C104.006 250.068 103.862 250.515 103.574 250.909C103.29 251.303 102.892 251.614 102.381 251.841C101.869 252.068 101.275 252.182 100.597 252.182C99.7064 252.182 98.9697 251.989 98.3864 251.602C97.803 251.216 97.4337 250.652 97.2784 249.909L98.5511 249.591C98.6723 250.061 98.9015 250.413 99.2386 250.648C99.5795 250.883 100.025 251 100.574 251C101.199 251 101.695 250.867 102.062 250.602C102.434 250.333 102.619 250.011 102.619 249.636C102.619 249.333 102.513 249.08 102.301 248.875C102.089 248.667 101.763 248.511 101.324 248.409L99.8693 248.068C99.0701 247.879 98.483 247.585 98.108 247.188C97.7367 246.786 97.5511 246.284 97.5511 245.682C97.5511 245.189 97.6894 244.754 97.9659 244.375C98.2462 243.996 98.6269 243.699 99.108 243.483C99.5928 243.267 100.142 243.159 100.756 243.159C101.619 243.159 102.297 243.348 102.79 243.727C103.286 244.106 103.638 244.606 103.847 245.227ZM109.57 252.182C108.751 252.182 108.047 251.989 107.456 251.602C106.865 251.216 106.411 250.684 106.092 250.006C105.774 249.328 105.615 248.553 105.615 247.682C105.615 246.795 105.778 246.013 106.104 245.335C106.433 244.653 106.892 244.121 107.479 243.739C108.07 243.352 108.759 243.159 109.547 243.159C110.161 243.159 110.714 243.273 111.206 243.5C111.698 243.727 112.102 244.045 112.416 244.455C112.731 244.864 112.926 245.341 113.001 245.886H111.661C111.558 245.489 111.331 245.136 110.979 244.83C110.63 244.519 110.161 244.364 109.57 244.364C109.047 244.364 108.589 244.5 108.195 244.773C107.804 245.042 107.5 245.422 107.28 245.915C107.064 246.403 106.956 246.977 106.956 247.636C106.956 248.311 107.062 248.898 107.274 249.398C107.49 249.898 107.793 250.286 108.183 250.562C108.577 250.839 109.039 250.977 109.57 250.977C109.918 250.977 110.234 250.917 110.518 250.795C110.803 250.674 111.043 250.5 111.24 250.273C111.437 250.045 111.577 249.773 111.661 249.455H113.001C112.926 249.97 112.738 250.434 112.439 250.847C112.143 251.256 111.751 251.581 111.263 251.824C110.778 252.062 110.214 252.182 109.57 252.182ZM114.962 252V243.273H116.257V244.591H116.348C116.507 244.159 116.795 243.809 117.212 243.54C117.628 243.271 118.098 243.136 118.621 243.136C118.719 243.136 118.842 243.138 118.99 243.142C119.138 243.146 119.25 243.152 119.325 243.159V244.523C119.28 244.511 119.176 244.494 119.013 244.472C118.854 244.445 118.685 244.432 118.507 244.432C118.083 244.432 117.704 244.521 117.371 244.699C117.041 244.873 116.78 245.116 116.587 245.426C116.397 245.733 116.303 246.083 116.303 246.477V252H114.962ZM120.915 252V243.273H122.256V252H120.915ZM121.597 241.818C121.335 241.818 121.11 241.729 120.92 241.551C120.735 241.373 120.642 241.159 120.642 240.909C120.642 240.659 120.735 240.445 120.92 240.267C121.11 240.089 121.335 240 121.597 240C121.858 240 122.081 240.089 122.267 240.267C122.456 240.445 122.551 240.659 122.551 240.909C122.551 241.159 122.456 241.373 122.267 241.551C122.081 241.729 121.858 241.818 121.597 241.818ZM124.712 255.273V243.273H126.007V244.659H126.166C126.265 244.508 126.401 244.314 126.575 244.08C126.753 243.841 127.007 243.629 127.337 243.443C127.67 243.254 128.121 243.159 128.689 243.159C129.424 243.159 130.071 243.343 130.632 243.71C131.193 244.078 131.63 244.598 131.945 245.273C132.259 245.947 132.416 246.742 132.416 247.659C132.416 248.583 132.259 249.384 131.945 250.062C131.63 250.737 131.195 251.259 130.638 251.631C130.081 251.998 129.439 252.182 128.712 252.182C128.151 252.182 127.702 252.089 127.365 251.903C127.028 251.714 126.768 251.5 126.587 251.261C126.405 251.019 126.265 250.818 126.166 250.659H126.053V255.273H124.712ZM126.03 247.636C126.03 248.295 126.126 248.877 126.32 249.381C126.513 249.881 126.795 250.273 127.166 250.557C127.537 250.837 127.992 250.977 128.53 250.977C129.09 250.977 129.558 250.83 129.933 250.534C130.312 250.235 130.596 249.833 130.786 249.33C130.979 248.822 131.075 248.258 131.075 247.636C131.075 247.023 130.981 246.47 130.791 245.977C130.606 245.481 130.323 245.089 129.945 244.801C129.57 244.509 129.098 244.364 128.53 244.364C127.984 244.364 127.526 244.502 127.155 244.778C126.784 245.051 126.503 245.434 126.314 245.926C126.125 246.415 126.03 246.985 126.03 247.636ZM138.257 243.273V244.409H133.734V243.273H138.257ZM135.053 241.182H136.393V249.5C136.393 249.879 136.448 250.163 136.558 250.352C136.672 250.538 136.816 250.663 136.99 250.727C137.168 250.788 137.356 250.818 137.553 250.818C137.7 250.818 137.821 250.811 137.916 250.795C138.011 250.777 138.087 250.761 138.143 250.75L138.416 251.955C138.325 251.989 138.198 252.023 138.036 252.057C137.873 252.095 137.666 252.114 137.416 252.114C137.037 252.114 136.666 252.032 136.303 251.869C135.943 251.706 135.643 251.458 135.405 251.125C135.17 250.792 135.053 250.371 135.053 249.864V241.182ZM140.274 252V243.273H141.615V252H140.274ZM140.956 241.818C140.695 241.818 140.469 241.729 140.28 241.551C140.094 241.373 140.001 241.159 140.001 240.909C140.001 240.659 140.094 240.445 140.28 240.267C140.469 240.089 140.695 240 140.956 240C141.217 240 141.441 240.089 141.626 240.267C141.816 240.445 141.911 240.659 141.911 240.909C141.911 241.159 141.816 241.373 141.626 241.551C141.441 241.729 141.217 241.818 140.956 241.818ZM147.616 252.182C146.829 252.182 146.137 251.994 145.543 251.619C144.952 251.244 144.49 250.72 144.156 250.045C143.827 249.371 143.662 248.583 143.662 247.682C143.662 246.773 143.827 245.979 144.156 245.301C144.49 244.623 144.952 244.097 145.543 243.722C146.137 243.347 146.829 243.159 147.616 243.159C148.404 243.159 149.094 243.347 149.685 243.722C150.279 244.097 150.741 244.623 151.071 245.301C151.404 245.979 151.571 246.773 151.571 247.682C151.571 248.583 151.404 249.371 151.071 250.045C150.741 250.72 150.279 251.244 149.685 251.619C149.094 251.994 148.404 252.182 147.616 252.182ZM147.616 250.977C148.215 250.977 148.707 250.824 149.094 250.517C149.48 250.21 149.766 249.807 149.952 249.307C150.137 248.807 150.23 248.265 150.23 247.682C150.23 247.098 150.137 246.555 149.952 246.051C149.766 245.547 149.48 245.14 149.094 244.83C148.707 244.519 148.215 244.364 147.616 244.364C147.018 244.364 146.526 244.519 146.139 244.83C145.753 245.14 145.467 245.547 145.281 246.051C145.096 246.555 145.003 247.098 145.003 247.682C145.003 248.265 145.096 248.807 145.281 249.307C145.467 249.807 145.753 250.21 146.139 250.517C146.526 250.824 147.018 250.977 147.616 250.977ZM154.959 246.75V252H153.618V243.273H154.913V244.636H155.027C155.232 244.193 155.542 243.837 155.959 243.568C156.375 243.295 156.913 243.159 157.572 243.159C158.163 243.159 158.68 243.28 159.124 243.523C159.567 243.761 159.911 244.125 160.158 244.614C160.404 245.098 160.527 245.712 160.527 246.455V252H159.186V246.545C159.186 245.86 159.008 245.326 158.652 244.943C158.296 244.557 157.807 244.364 157.186 244.364C156.758 244.364 156.375 244.456 156.038 244.642C155.705 244.828 155.442 245.098 155.249 245.455C155.055 245.811 154.959 246.242 154.959 246.75Z" fill="#B9B9B9"/>
<path d="M238.977 514H168.023C143.71 514 124 514.448 124 515V551C124 551.552 143.71 552 168.023 552H238.977C263.29 552 283 551.552 283 551V515C283 514.448 263.29 514 238.977 514Z" fill="#E1E1E1" stroke="black" stroke-width="2"/>
<path d="M190.34 530.5H189.019C188.941 530.12 188.804 529.786 188.608 529.499C188.417 529.211 188.182 528.969 187.905 528.774C187.632 528.575 187.328 528.426 186.994 528.327C186.661 528.227 186.313 528.178 185.95 528.178C185.29 528.178 184.692 528.344 184.155 528.678C183.623 529.012 183.198 529.504 182.882 530.154C182.57 530.804 182.414 531.601 182.414 532.545C182.414 533.49 182.57 534.287 182.882 534.937C183.198 535.587 183.623 536.079 184.155 536.413C184.692 536.746 185.29 536.913 185.95 536.913C186.313 536.913 186.661 536.864 186.994 536.764C187.328 536.665 187.632 536.517 187.905 536.322C188.182 536.123 188.417 535.88 188.608 535.592C188.804 535.301 188.941 534.967 189.019 534.591H190.34C190.24 535.148 190.059 535.647 189.796 536.088C189.534 536.528 189.207 536.903 188.816 537.212C188.426 537.517 187.987 537.75 187.501 537.909C187.018 538.069 186.501 538.149 185.95 538.149C185.02 538.149 184.193 537.922 183.468 537.467C182.744 537.013 182.174 536.366 181.758 535.528C181.343 534.69 181.135 533.696 181.135 532.545C181.135 531.395 181.343 530.401 181.758 529.562C182.174 528.724 182.744 528.078 183.468 527.624C184.193 527.169 185.02 526.942 185.95 526.942C186.501 526.942 187.018 527.022 187.501 527.181C187.987 527.341 188.426 527.576 188.816 527.885C189.207 528.19 189.534 528.563 189.796 529.003C190.059 529.44 190.24 529.939 190.34 530.5ZM192.304 538V529.818H193.518V531.054H193.604C193.753 530.649 194.023 530.321 194.413 530.069C194.804 529.816 195.244 529.69 195.734 529.69C195.827 529.69 195.942 529.692 196.081 529.696C196.219 529.699 196.324 529.705 196.395 529.712V530.99C196.352 530.979 196.255 530.963 196.102 530.942C195.953 530.917 195.795 530.905 195.628 530.905C195.23 530.905 194.875 530.988 194.562 531.155C194.253 531.319 194.008 531.546 193.827 531.837C193.65 532.125 193.561 532.453 193.561 532.822V538H192.304ZM201.066 538.17C200.278 538.17 199.598 537.996 199.026 537.648C198.458 537.297 198.019 536.807 197.71 536.178C197.405 535.546 197.252 534.811 197.252 533.973C197.252 533.135 197.405 532.396 197.71 531.757C198.019 531.114 198.449 530.614 199 530.255C199.554 529.893 200.2 529.712 200.938 529.712C201.365 529.712 201.785 529.783 202.201 529.925C202.616 530.067 202.995 530.298 203.335 530.617C203.676 530.933 203.948 531.352 204.15 531.874C204.353 532.396 204.454 533.039 204.454 533.803V534.335H198.147V533.249H203.176C203.176 532.787 203.083 532.375 202.899 532.013C202.718 531.651 202.458 531.365 202.121 531.155C201.787 530.946 201.393 530.841 200.938 530.841C200.438 530.841 200.005 530.965 199.639 531.214C199.277 531.459 198.998 531.778 198.802 532.173C198.607 532.567 198.509 532.989 198.509 533.44V534.165C198.509 534.783 198.616 535.306 198.829 535.736C199.046 536.162 199.346 536.487 199.729 536.711C200.113 536.931 200.559 537.041 201.066 537.041C201.397 537.041 201.695 536.995 201.961 536.903C202.231 536.807 202.464 536.665 202.659 536.477C202.854 536.285 203.005 536.047 203.112 535.763L204.326 536.104C204.198 536.516 203.984 536.878 203.682 537.19C203.38 537.499 203.007 537.741 202.563 537.915C202.119 538.085 201.62 538.17 201.066 538.17ZM208.774 538.192C208.256 538.192 207.785 538.094 207.362 537.899C206.94 537.7 206.604 537.414 206.356 537.041C206.107 536.665 205.983 536.21 205.983 535.678C205.983 535.209 206.075 534.829 206.26 534.538C206.445 534.243 206.691 534.012 207 533.845C207.309 533.678 207.65 533.554 208.023 533.472C208.399 533.387 208.778 533.32 209.158 533.27C209.655 533.206 210.058 533.158 210.367 533.126C210.679 533.091 210.907 533.032 211.049 532.95C211.194 532.869 211.267 532.727 211.267 532.524V532.482C211.267 531.956 211.123 531.548 210.835 531.256C210.551 530.965 210.12 530.82 209.541 530.82C208.941 530.82 208.47 530.951 208.13 531.214C207.789 531.477 207.549 531.757 207.41 532.055L206.217 531.629C206.43 531.132 206.714 530.745 207.07 530.468C207.428 530.187 207.819 529.992 208.241 529.882C208.668 529.768 209.087 529.712 209.498 529.712C209.761 529.712 210.063 529.744 210.404 529.808C210.748 529.868 211.081 529.994 211.4 530.186C211.723 530.377 211.991 530.667 212.204 531.054C212.418 531.441 212.524 531.96 212.524 532.609V538H211.267V536.892H211.203C211.118 537.07 210.976 537.26 210.777 537.462C210.578 537.664 210.313 537.837 209.983 537.979C209.653 538.121 209.25 538.192 208.774 538.192ZM208.966 537.062C209.463 537.062 209.882 536.965 210.223 536.77C210.567 536.574 210.827 536.322 211.001 536.013C211.178 535.704 211.267 535.379 211.267 535.038V533.888C211.214 533.952 211.097 534.01 210.915 534.064C210.738 534.113 210.532 534.158 210.297 534.197C210.067 534.232 209.841 534.264 209.621 534.293C209.404 534.317 209.229 534.339 209.094 534.357C208.767 534.399 208.462 534.468 208.177 534.564C207.897 534.657 207.67 534.797 207.496 534.985C207.325 535.17 207.24 535.422 207.24 535.741C207.24 536.178 207.402 536.509 207.725 536.732C208.051 536.952 208.465 537.062 208.966 537.062ZM218.377 529.818V530.884H214.137V529.818H218.377ZM215.373 527.858H216.63V535.656C216.63 536.011 216.681 536.278 216.784 536.455C216.891 536.629 217.026 536.746 217.189 536.807C217.356 536.864 217.532 536.892 217.716 536.892C217.855 536.892 217.968 536.885 218.057 536.871C218.146 536.853 218.217 536.839 218.27 536.828L218.526 537.957C218.441 537.989 218.322 538.021 218.169 538.053C218.016 538.089 217.823 538.107 217.588 538.107C217.233 538.107 216.885 538.03 216.544 537.877C216.207 537.725 215.926 537.492 215.703 537.18C215.483 536.867 215.373 536.473 215.373 535.997V527.858ZM223.61 538.17C222.822 538.17 222.142 537.996 221.57 537.648C221.002 537.297 220.563 536.807 220.254 536.178C219.949 535.546 219.796 534.811 219.796 533.973C219.796 533.135 219.949 532.396 220.254 531.757C220.563 531.114 220.993 530.614 221.544 530.255C222.097 529.893 222.744 529.712 223.482 529.712C223.909 529.712 224.329 529.783 224.745 529.925C225.16 530.067 225.539 530.298 225.879 530.617C226.22 530.933 226.492 531.352 226.694 531.874C226.897 532.396 226.998 533.039 226.998 533.803V534.335H220.691V533.249H225.72C225.72 532.787 225.627 532.375 225.443 532.013C225.262 531.651 225.002 531.365 224.665 531.155C224.331 530.946 223.937 530.841 223.482 530.841C222.982 530.841 222.548 530.965 222.183 531.214C221.82 531.459 221.542 531.778 221.346 532.173C221.151 532.567 221.053 532.989 221.053 533.44V534.165C221.053 534.783 221.16 535.306 221.373 535.736C221.59 536.162 221.89 536.487 222.273 536.711C222.657 536.931 223.102 537.041 223.61 537.041C223.941 537.041 224.239 536.995 224.505 536.903C224.775 536.807 225.008 536.665 225.203 536.477C225.398 536.285 225.549 536.047 225.656 535.763L226.87 536.104C226.742 536.516 226.528 536.878 226.226 537.19C225.924 537.499 225.551 537.741 225.107 537.915C224.663 538.085 224.164 538.17 223.61 538.17Z" fill="black"/>
</g>
<defs>
<clipPath id="clip0_1_164">
<rect width="400" height="800" fill="white"/>
</clipPath>
</defs>
</svg>
