<svg width="400" height="800" viewBox="0 0 400 800" fill="none" xmlns="http://www.w3.org/2000/svg">
<g clip-path="url(#clip0_1_221)">
<path d="M378 1H21C9.9543 1 1 4.3854 1 8.5615V700.438C1 704.615 9.9543 708 21 708H378C389.046 708 398 704.615 398 700.438V8.5615C398 4.3854 389.046 1 378 1Z" fill="white" stroke="black" stroke-width="3"/>
<mask id="mask0_1_221" style="mask-type:luminance" maskUnits="userSpaceOnUse" x="0" y="0" width="400" height="800">
<path d="M400 0H0V800H400V0Z" fill="black"/>
<path d="M378 1H21C9.9543 1 1 9.9543 1 21V766C1 777.046 9.9543 786 21 786H378C389.046 786 398 777.046 398 766V21C398 9.9543 389.046 1 378 1Z" fill="white"/>
</mask>
<g mask="url(#mask0_1_221)">
<path d="M377 10H22C10.9543 10 2 10.4477 2 11V65C2 65.5523 10.9543 66 22 66H377C388.046 66 397 65.5523 397 65V11C397 10.4477 388.046 10 377 10Z" fill="#F3F3F3" stroke="black" stroke-width="2"/>
</g>
<path d="M177.918 31.6662V30.1818H188.281V31.6662H183.936V44H182.263V31.6662H177.918ZM201.948 37.0909C201.948 38.5483 201.684 39.8078 201.158 40.8693C200.632 41.9309 199.91 42.7495 198.992 43.3253C198.075 43.901 197.027 44.1889 195.848 44.1889C194.67 44.1889 193.622 43.901 192.704 43.3253C191.786 42.7495 191.064 41.9309 190.538 40.8693C190.012 39.8078 189.749 38.5483 189.749 37.0909C189.749 35.6335 190.012 34.3741 190.538 33.3125C191.064 32.2509 191.786 31.4323 192.704 30.8565C193.622 30.2808 194.67 29.9929 195.848 29.9929C197.027 29.9929 198.075 30.2808 198.992 30.8565C199.91 31.4323 200.632 32.2509 201.158 33.3125C201.684 34.3741 201.948 35.6335 201.948 37.0909ZM200.328 37.0909C200.328 35.8944 200.128 34.8846 199.728 34.0614C199.332 33.2383 198.794 32.6153 198.115 32.1925C197.441 31.7696 196.685 31.5582 195.848 31.5582C195.012 31.5582 194.254 31.7696 193.574 32.1925C192.9 32.6153 192.362 33.2383 191.962 34.0614C191.566 34.8846 191.368 35.8944 191.368 37.0909C191.368 38.2874 191.566 39.2972 191.962 40.1204C192.362 40.9435 192.9 41.5665 193.574 41.9893C194.254 42.4122 195.012 42.6236 195.848 42.6236C196.685 42.6236 197.441 42.4122 198.115 41.9893C198.794 41.5665 199.332 40.9435 199.728 40.1204C200.128 39.2972 200.328 38.2874 200.328 37.0909ZM209.025 44H204.761V30.1818H209.214C210.555 30.1818 211.702 30.4585 212.655 31.0117C213.609 31.5605 214.34 32.3499 214.848 33.38C215.356 34.4055 215.611 35.6335 215.611 37.0639C215.611 38.5033 215.354 39.7425 214.841 40.7816C214.329 41.8162 213.582 42.6123 212.601 43.1701C211.621 43.7234 210.429 44 209.025 44ZM206.434 42.5156H208.917C210.06 42.5156 211.007 42.2952 211.758 41.8544C212.509 41.4136 213.069 40.7861 213.438 39.9719C213.807 39.1578 213.991 38.1884 213.991 37.0639C213.991 35.9484 213.809 34.988 213.445 34.1829C213.08 33.3732 212.536 32.7525 211.812 32.3207C211.088 31.8844 210.186 31.6662 209.106 31.6662H206.434V42.5156ZM230.077 37.0909C230.077 38.5483 229.813 39.8078 229.287 40.8693C228.761 41.9309 228.039 42.7495 227.121 43.3253C226.204 43.901 225.156 44.1889 223.977 44.1889C222.799 44.1889 221.751 43.901 220.833 43.3253C219.915 42.7495 219.193 41.9309 218.667 40.8693C218.141 39.8078 217.878 38.5483 217.878 37.0909C217.878 35.6335 218.141 34.3741 218.667 33.3125C219.193 32.2509 219.915 31.4323 220.833 30.8565C221.751 30.2808 222.799 29.9929 223.977 29.9929C225.156 29.9929 226.204 30.2808 227.121 30.8565C228.039 31.4323 228.761 32.2509 229.287 33.3125C229.813 34.3741 230.077 35.6335 230.077 37.0909ZM228.457 37.0909C228.457 35.8944 228.257 34.8846 227.857 34.0614C227.461 33.2383 226.923 32.6153 226.244 32.1925C225.569 31.7696 224.814 31.5582 223.977 31.5582C223.14 31.5582 222.383 31.7696 221.703 32.1925C221.029 32.6153 220.491 33.2383 220.091 34.0614C219.695 34.8846 219.497 35.8944 219.497 37.0909C219.497 38.2874 219.695 39.2972 220.091 40.1204C220.491 40.9435 221.029 41.5665 221.703 41.9893C222.383 42.4122 223.14 42.6236 223.977 42.6236C224.814 42.6236 225.569 42.4122 226.244 41.9893C226.923 41.5665 227.461 40.9435 227.857 40.1204C228.257 39.2972 228.457 38.2874 228.457 37.0909Z" fill="black"/>
<path d="M177 47.7784H231.21V49.0739H177V47.7784Z" fill="black"/>
<path d="M50.5351 20H30.4649C22.4762 20 16 20.4477 16 21V57C16 57.5523 22.4762 58 30.4649 58H50.5351C58.5238 58 65 57.5523 65 57V21C65 20.4477 58.5238 20 50.5351 20Z" fill="white" stroke="black" stroke-width="2"/>
<path d="M37.0689 41.1648V40.3125L43.9297 36.8182V38.1818L38.6669 40.7173L38.7095 40.6321V40.8452L38.6669 40.7599L43.9297 43.2955V44.6591L37.0689 41.1648Z" fill="black"/>
<path d="M356 108H54C42.9543 108 34 108.448 34 109V145C34 145.552 42.9543 146 54 146H356C367.046 146 376 145.552 376 145V109C376 108.448 367.046 108 356 108Z" fill="white" stroke="black" stroke-width="2"/>
<path d="M53.2273 125.182C53.2273 126.409 53.0057 127.47 52.5625 128.364C52.1193 129.258 51.5114 129.947 50.7386 130.432C49.9659 130.917 49.0833 131.159 48.0909 131.159C47.0985 131.159 46.2159 130.917 45.4432 130.432C44.6705 129.947 44.0625 129.258 43.6193 128.364C43.1761 127.47 42.9545 126.409 42.9545 125.182C42.9545 123.955 43.1761 122.894 43.6193 122C44.0625 121.106 44.6705 120.417 45.4432 119.932C46.2159 119.447 47.0985 119.205 48.0909 119.205C49.0833 119.205 49.9659 119.447 50.7386 119.932C51.5114 120.417 52.1193 121.106 52.5625 122C53.0057 122.894 53.2273 123.955 53.2273 125.182ZM51.8636 125.182C51.8636 124.174 51.6951 123.324 51.358 122.631C51.0246 121.938 50.572 121.413 50 121.057C49.4318 120.701 48.7955 120.523 48.0909 120.523C47.3864 120.523 46.7481 120.701 46.1761 121.057C45.608 121.413 45.1553 121.938 44.8182 122.631C44.4848 123.324 44.3182 124.174 44.3182 125.182C44.3182 126.189 44.4848 127.04 44.8182 127.733C45.1553 128.426 45.608 128.951 46.1761 129.307C46.7481 129.663 47.3864 129.841 48.0909 129.841C48.7955 129.841 49.4318 129.663 50 129.307C50.572 128.951 51.0246 128.426 51.358 127.733C51.6951 127.04 51.8636 126.189 51.8636 125.182ZM56.7557 119.364V131H55.4148V119.364H56.7557ZM62.5071 131.182C61.7798 131.182 61.1378 130.998 60.581 130.631C60.0241 130.259 59.5885 129.737 59.2741 129.062C58.9598 128.384 58.8026 127.583 58.8026 126.659C58.8026 125.742 58.9598 124.947 59.2741 124.273C59.5885 123.598 60.026 123.078 60.5866 122.71C61.1473 122.343 61.795 122.159 62.5298 122.159C63.098 122.159 63.5469 122.254 63.8764 122.443C64.2098 122.629 64.4635 122.841 64.6378 123.08C64.8158 123.314 64.9541 123.508 65.0526 123.659H65.1662V119.364H66.5071V131H65.2116V129.659H65.0526C64.9541 129.818 64.8139 130.019 64.6321 130.261C64.4503 130.5 64.1908 130.714 63.8537 130.903C63.5166 131.089 63.0677 131.182 62.5071 131.182ZM62.6889 129.977C63.2268 129.977 63.6813 129.837 64.0526 129.557C64.4238 129.273 64.706 128.881 64.8991 128.381C65.0923 127.877 65.1889 127.295 65.1889 126.636C65.1889 125.985 65.0942 125.415 64.9048 124.926C64.7154 124.434 64.4351 124.051 64.0639 123.778C63.6927 123.502 63.2344 123.364 62.6889 123.364C62.1207 123.364 61.6473 123.509 61.2685 123.801C60.8935 124.089 60.6113 124.481 60.4219 124.977C60.2363 125.47 60.1435 126.023 60.1435 126.636C60.1435 127.258 60.2382 127.822 60.4276 128.33C60.6207 128.833 60.9048 129.235 61.2798 129.534C61.6586 129.83 62.1283 129.977 62.6889 129.977ZM77.4446 122.273V123.409H72.9219V122.273H77.4446ZM74.2401 120.182H75.581V128.5C75.581 128.879 75.6359 129.163 75.7457 129.352C75.8594 129.538 76.0033 129.663 76.1776 129.727C76.3556 129.788 76.5431 129.818 76.7401 129.818C76.8878 129.818 77.009 129.811 77.1037 129.795C77.1984 129.777 77.2741 129.761 77.331 129.75L77.6037 130.955C77.5128 130.989 77.3859 131.023 77.223 131.057C77.0601 131.095 76.8537 131.114 76.6037 131.114C76.2249 131.114 75.8537 131.032 75.4901 130.869C75.1302 130.706 74.831 130.458 74.5923 130.125C74.3575 129.792 74.2401 129.371 74.2401 128.864V120.182ZM79.4616 131V122.273H80.8026V131H79.4616ZM80.1435 120.818C79.8821 120.818 79.6567 120.729 79.4673 120.551C79.2817 120.373 79.1889 120.159 79.1889 119.909C79.1889 119.659 79.2817 119.445 79.4673 119.267C79.6567 119.089 79.8821 119 80.1435 119C80.4048 119 80.6283 119.089 80.8139 119.267C81.0033 119.445 81.098 119.659 81.098 119.909C81.098 120.159 81.0033 120.373 80.8139 120.551C80.6283 120.729 80.4048 120.818 80.1435 120.818ZM87.054 122.273V123.409H82.5312V122.273H87.054ZM83.8494 120.182H85.1903V128.5C85.1903 128.879 85.2453 129.163 85.3551 129.352C85.4688 129.538 85.6127 129.663 85.7869 129.727C85.965 129.788 86.1525 129.818 86.3494 129.818C86.4972 129.818 86.6184 129.811 86.7131 129.795C86.8078 129.777 86.8835 129.761 86.9403 129.75L87.2131 130.955C87.1222 130.989 86.9953 131.023 86.8324 131.057C86.6695 131.095 86.4631 131.114 86.2131 131.114C85.8343 131.114 85.4631 131.032 85.0994 130.869C84.7396 130.706 84.4403 130.458 84.2017 130.125C83.9669 129.792 83.8494 129.371 83.8494 128.864V120.182ZM90.5994 119.364V131H89.2585V119.364H90.5994ZM96.7145 131.182C95.8736 131.182 95.1482 130.996 94.5384 130.625C93.9323 130.25 93.4645 129.727 93.1349 129.057C92.8092 128.383 92.6463 127.598 92.6463 126.705C92.6463 125.811 92.8092 125.023 93.1349 124.341C93.4645 123.655 93.9228 123.121 94.5099 122.739C95.1009 122.352 95.7902 122.159 96.5781 122.159C97.0327 122.159 97.4815 122.235 97.9247 122.386C98.3679 122.538 98.7713 122.784 99.1349 123.125C99.4986 123.462 99.7884 123.909 100.004 124.466C100.22 125.023 100.328 125.708 100.328 126.523V127.091H93.6009V125.932H98.9645C98.9645 125.439 98.866 125 98.669 124.614C98.4759 124.227 98.1993 123.922 97.8395 123.699C97.4834 123.475 97.063 123.364 96.5781 123.364C96.044 123.364 95.5819 123.496 95.1918 123.761C94.8054 124.023 94.508 124.364 94.2997 124.784C94.0914 125.205 93.9872 125.655 93.9872 126.136V126.909C93.9872 127.568 94.1009 128.127 94.3281 128.585C94.5592 129.04 94.8793 129.386 95.2884 129.625C95.6974 129.86 96.1728 129.977 96.7145 129.977C97.0668 129.977 97.3849 129.928 97.669 129.83C97.9569 129.727 98.205 129.576 98.4134 129.375C98.6217 129.17 98.7827 128.917 98.8963 128.614L100.192 128.977C100.055 129.417 99.8262 129.803 99.5043 130.136C99.1823 130.466 98.7846 130.723 98.3111 130.909C97.8376 131.091 97.3054 131.182 96.7145 131.182Z" fill="black"/>
<path d="M34.6747 83.5906V81.1818H46.0234V83.5906H41.793V95H38.9052V83.5906H34.6747ZM47.8384 95V84.6364H50.7127V95H47.8384ZM49.2823 83.3004C48.855 83.3004 48.4884 83.1587 48.1825 82.8754C47.8812 82.5875 47.7305 82.2434 47.7305 81.843C47.7305 81.4472 47.8812 81.1076 48.1825 80.8242C48.4884 80.5363 48.855 80.3924 49.2823 80.3924C49.7096 80.3924 50.074 80.5363 50.3754 80.8242C50.6812 81.1076 50.8342 81.4472 50.8342 81.843C50.8342 82.2434 50.6812 82.5875 50.3754 82.8754C50.074 83.1587 49.7096 83.3004 49.2823 83.3004ZM58.5276 84.6364V86.7955H52.2865V84.6364H58.5276ZM53.7034 82.1534H56.5777V91.8153C56.5777 92.0807 56.6182 92.2876 56.6991 92.4361C56.7801 92.58 56.8925 92.6812 57.0365 92.7397C57.1849 92.7982 57.3559 92.8274 57.5493 92.8274C57.6842 92.8274 57.8192 92.8162 57.9541 92.7937C58.089 92.7667 58.1925 92.7464 58.2645 92.733L58.7165 94.8718C58.5726 94.9168 58.3702 94.9685 58.1093 95.027C57.8484 95.09 57.5313 95.1282 57.1579 95.1417C56.4652 95.1687 55.858 95.0765 55.3362 94.8651C54.8189 94.6536 54.4163 94.3253 54.1285 93.88C53.8406 93.4347 53.6989 92.8724 53.7034 92.1932V82.1534ZM63.4969 81.1818V95H60.6226V81.1818H63.4969ZM70.5224 95.2024C69.4563 95.2024 68.5387 94.9865 67.7695 94.5547C67.0049 94.1184 66.4156 93.5021 66.0018 92.706C65.5879 91.9053 65.381 90.9585 65.381 89.8654C65.381 88.7994 65.5879 87.8638 66.0018 87.0586C66.4156 86.2534 66.9981 85.6259 67.7493 85.1761C68.505 84.7263 69.3911 84.5014 70.4077 84.5014C71.0914 84.5014 71.7279 84.6116 72.3171 84.832C72.9109 85.0479 73.4281 85.3741 73.869 85.8104C74.3143 86.2467 74.6606 86.7955 74.908 87.4567C75.1554 88.1134 75.2791 88.8826 75.2791 89.7642V90.5536H66.5281V88.7724H72.5735C72.5735 88.3585 72.4835 87.992 72.3036 87.6726C72.1237 87.3532 71.8741 87.1036 71.5547 86.9237C71.2398 86.7392 70.8732 86.647 70.4549 86.647C70.0186 86.647 69.6317 86.7482 69.2944 86.9506C68.9615 87.1486 68.7006 87.4162 68.5117 87.7536C68.3228 88.0864 68.2261 88.4575 68.2216 88.8668V90.5604C68.2216 91.0732 68.3161 91.5162 68.505 91.8896C68.6984 92.2629 68.9705 92.5508 69.3214 92.7532C69.6722 92.9556 70.0883 93.0568 70.5696 93.0568C70.889 93.0568 71.1813 93.0118 71.4467 92.9219C71.7121 92.8319 71.9393 92.697 72.1282 92.517C72.3171 92.3371 72.4611 92.1167 72.56 91.8558L75.2184 92.0312C75.0835 92.67 74.8068 93.2277 74.3885 93.7045C73.9747 94.1768 73.4394 94.5457 72.7827 94.8111C72.1304 95.072 71.377 95.2024 70.5224 95.2024ZM84.8651 88.9545L85.0338 86.3434L82.8477 87.8075L81.9436 86.2152L84.2984 85.0682L81.9436 83.9212L82.8477 82.3288L85.0338 83.793L84.8651 81.1818H86.6801L86.5047 83.793L88.6908 82.3288L89.5949 83.9212L87.2469 85.0682L89.5949 86.2152L88.6908 87.8075L86.5047 86.3434L86.6801 88.9545H84.8651Z" fill="black"/>
<path d="M47.3931 184.02H44.4379C44.3839 183.637 44.2737 183.298 44.1072 183.001C43.9408 182.699 43.7272 182.443 43.4663 182.232C43.2054 182.02 42.904 181.858 42.5621 181.746C42.2248 181.633 41.8582 181.577 41.4624 181.577C40.7472 181.577 40.1242 181.755 39.5934 182.11C39.0626 182.461 38.651 182.974 38.3587 183.648C38.0663 184.319 37.9201 185.133 37.9201 186.091C37.9201 187.076 38.0663 187.904 38.3587 188.574C38.6555 189.244 39.0694 189.75 39.6001 190.092C40.1309 190.434 40.7449 190.605 41.4421 190.605C41.8335 190.605 42.1955 190.553 42.5284 190.45C42.8658 190.346 43.1649 190.195 43.4258 189.998C43.6867 189.795 43.9026 189.55 44.0735 189.262C44.2489 188.974 44.3704 188.646 44.4379 188.277L47.3931 188.29C47.3166 188.925 47.1255 189.536 46.8196 190.126C46.5182 190.71 46.1112 191.234 45.5984 191.698C45.0901 192.157 44.4828 192.521 43.7766 192.791C43.0749 193.056 42.281 193.189 41.3949 193.189C40.1624 193.189 39.0604 192.91 38.0888 192.352C37.1217 191.795 36.357 190.987 35.7947 189.93C35.237 188.873 34.9581 187.593 34.9581 186.091C34.9581 184.584 35.2415 183.302 35.8082 182.245C36.375 181.188 37.1442 180.383 38.1158 179.83C39.0874 179.272 40.1804 178.993 41.3949 178.993C42.1955 178.993 42.9377 179.105 43.6214 179.33C44.3097 179.555 44.9192 179.884 45.4499 180.315C45.9807 180.743 46.4125 181.267 46.7454 181.887C47.0827 182.508 47.2987 183.219 47.3931 184.02ZM54.1167 193.202C53.0686 193.202 52.1622 192.98 51.3975 192.534C50.6374 192.085 50.0504 191.459 49.6365 190.659C49.2227 189.854 49.0158 188.92 49.0158 187.859C49.0158 186.788 49.2227 185.853 49.6365 185.052C50.0504 184.247 50.6374 183.621 51.3975 183.176C52.1622 182.726 53.0686 182.501 54.1167 182.501C55.1647 182.501 56.0688 182.726 56.829 183.176C57.5937 183.621 58.1829 184.247 58.5968 185.052C59.0106 185.853 59.2175 186.788 59.2175 187.859C59.2175 188.92 59.0106 189.854 58.5968 190.659C58.1829 191.459 57.5937 192.085 56.829 192.534C56.0688 192.98 55.1647 193.202 54.1167 193.202ZM54.1301 190.976C54.6069 190.976 55.005 190.841 55.3244 190.571C55.6438 190.297 55.8844 189.923 56.0463 189.451C56.2128 188.979 56.296 188.441 56.296 187.838C56.296 187.236 56.2128 186.698 56.0463 186.226C55.8844 185.754 55.6438 185.38 55.3244 185.106C55.005 184.831 54.6069 184.694 54.1301 184.694C53.6489 184.694 53.244 184.831 52.9157 185.106C52.5918 185.38 52.3467 185.754 52.1802 186.226C52.0183 186.698 51.9373 187.236 51.9373 187.838C51.9373 188.441 52.0183 188.979 52.1802 189.451C52.3467 189.923 52.5918 190.297 52.9157 190.571C53.244 190.841 53.6489 190.976 54.1301 190.976ZM61.0865 193V182.636H63.8258V184.465H63.9473C64.1632 183.858 64.523 183.379 65.0268 183.028C65.5306 182.677 66.1333 182.501 66.8351 182.501C67.5458 182.501 68.1507 182.679 68.65 183.034C69.1493 183.385 69.4822 183.862 69.6486 184.465H69.7566C69.968 183.871 70.3503 183.397 70.9036 183.041C71.4614 182.681 72.1203 182.501 72.8805 182.501C73.8476 182.501 74.6325 182.81 75.2353 183.426C75.8425 184.038 76.1461 184.906 76.1461 186.03V193H73.2786V186.597C73.2786 186.021 73.1257 185.589 72.8198 185.301C72.5139 185.014 72.1316 184.87 71.6728 184.87C71.151 184.87 70.7439 185.036 70.4515 185.369C70.1592 185.697 70.013 186.131 70.013 186.671V193H67.2264V186.536C67.2264 186.028 67.0802 185.623 66.7878 185.322C66.4999 185.02 66.1199 184.87 65.6476 184.87C65.3282 184.87 65.0403 184.951 64.7839 185.113C64.532 185.27 64.3319 185.493 64.1834 185.781C64.035 186.064 63.9608 186.397 63.9608 186.779V193H61.0865ZM78.4165 193V182.636H81.1559V184.465H81.2773C81.4933 183.858 81.8531 183.379 82.3569 183.028C82.8607 182.677 83.4634 182.501 84.1651 182.501C84.8758 182.501 85.4808 182.679 85.9801 183.034C86.4794 183.385 86.8123 183.862 86.9787 184.465H87.0866C87.2981 183.871 87.6804 183.397 88.2337 183.041C88.7914 182.681 89.4504 182.501 90.2106 182.501C91.1777 182.501 91.9626 182.81 92.5653 183.426C93.1726 184.038 93.4762 184.906 93.4762 186.03V193H90.6087V186.597C90.6087 186.021 90.4557 185.589 90.1499 185.301C89.844 185.014 89.4616 184.87 89.0028 184.87C88.4811 184.87 88.074 185.036 87.7816 185.369C87.4892 185.697 87.343 186.131 87.343 186.671V193H84.5565V186.536C84.5565 186.028 84.4103 185.623 84.1179 185.322C83.83 185.02 83.4499 184.87 82.9776 184.87C82.6583 184.87 82.3704 184.951 82.114 185.113C81.8621 185.27 81.6619 185.493 81.5135 185.781C81.3651 186.064 81.2908 186.397 81.2908 186.779V193H78.4165ZM100.47 193.202C99.4036 193.202 98.486 192.987 97.7168 192.555C96.9521 192.118 96.3629 191.502 95.949 190.706C95.5352 189.905 95.3283 188.958 95.3283 187.865C95.3283 186.799 95.5352 185.864 95.949 185.059C96.3629 184.253 96.9454 183.626 97.6966 183.176C98.4522 182.726 99.3384 182.501 100.355 182.501C101.039 182.501 101.675 182.612 102.264 182.832C102.858 183.048 103.375 183.374 103.816 183.81C104.262 184.247 104.608 184.795 104.855 185.457C105.103 186.113 105.226 186.883 105.226 187.764V188.554H96.4753V186.772H102.521C102.521 186.359 102.431 185.992 102.251 185.673C102.071 185.353 101.821 185.104 101.502 184.924C101.187 184.739 100.82 184.647 100.402 184.647C99.9659 184.647 99.579 184.748 99.2417 184.951C98.9088 185.149 98.6479 185.416 98.459 185.754C98.2701 186.086 98.1734 186.458 98.1689 186.867V188.56C98.1689 189.073 98.2633 189.516 98.4522 189.89C98.6457 190.263 98.9178 190.551 99.2686 190.753C99.6195 190.956 100.036 191.057 100.517 191.057C100.836 191.057 101.129 191.012 101.394 190.922C101.659 190.832 101.887 190.697 102.075 190.517C102.264 190.337 102.408 190.117 102.507 189.856L105.166 190.031C105.031 190.67 104.754 191.228 104.336 191.705C103.922 192.177 103.387 192.546 102.73 192.811C102.078 193.072 101.324 193.202 100.47 193.202ZM109.976 187.009V193H107.102V182.636H109.841V184.465H109.963C110.192 183.862 110.577 183.385 111.117 183.034C111.656 182.679 112.311 182.501 113.08 182.501C113.8 182.501 114.427 182.659 114.963 182.974C115.498 183.289 115.914 183.738 116.211 184.323C116.508 184.903 116.656 185.596 116.656 186.401V193H113.782V186.914C113.786 186.28 113.624 185.785 113.296 185.43C112.968 185.07 112.516 184.89 111.94 184.89C111.553 184.89 111.211 184.973 110.914 185.14C110.622 185.306 110.392 185.549 110.226 185.868C110.064 186.183 109.981 186.563 109.976 187.009ZM124.434 182.636V184.795H118.193V182.636H124.434ZM119.61 180.153H122.484V189.815C122.484 190.081 122.524 190.288 122.605 190.436C122.686 190.58 122.799 190.681 122.943 190.74C123.091 190.798 123.262 190.827 123.456 190.827C123.59 190.827 123.725 190.816 123.86 190.794C123.995 190.767 124.099 190.746 124.171 190.733L124.623 192.872C124.479 192.917 124.276 192.969 124.016 193.027C123.755 193.09 123.438 193.128 123.064 193.142C122.371 193.169 121.764 193.076 121.242 192.865C120.725 192.654 120.323 192.325 120.035 191.88C119.747 191.435 119.605 190.872 119.61 190.193V180.153ZM134.799 185.592L132.168 185.754C132.123 185.529 132.026 185.326 131.878 185.146C131.729 184.962 131.534 184.816 131.291 184.708C131.052 184.595 130.767 184.539 130.434 184.539C129.988 184.539 129.613 184.634 129.307 184.822C129.001 185.007 128.848 185.254 128.848 185.565C128.848 185.812 128.947 186.021 129.145 186.192C129.343 186.363 129.683 186.5 130.164 186.604L132.04 186.982C133.047 187.188 133.798 187.521 134.293 187.98C134.788 188.439 135.035 189.042 135.035 189.788C135.035 190.468 134.835 191.064 134.435 191.576C134.039 192.089 133.495 192.489 132.802 192.777C132.114 193.061 131.32 193.202 130.42 193.202C129.048 193.202 127.955 192.917 127.141 192.346C126.331 191.77 125.857 190.987 125.718 189.998L128.545 189.849C128.63 190.267 128.837 190.587 129.165 190.807C129.494 191.023 129.914 191.131 130.427 191.131C130.931 191.131 131.336 191.034 131.642 190.841C131.952 190.643 132.109 190.389 132.114 190.078C132.109 189.818 131.999 189.604 131.783 189.438C131.567 189.267 131.234 189.136 130.785 189.046L128.99 188.689C127.978 188.486 127.224 188.135 126.73 187.636C126.239 187.137 125.994 186.5 125.994 185.727C125.994 185.061 126.174 184.487 126.534 184.006C126.898 183.525 127.409 183.154 128.066 182.893C128.727 182.632 129.5 182.501 130.387 182.501C131.695 182.501 132.726 182.778 133.477 183.331C134.232 183.885 134.673 184.638 134.799 185.592Z" fill="black"/>
<path d="M351 227H49C37.9543 227 29 229.922 29 233.526V468.474C29 472.078 37.9543 475 49 475H351C362.046 475 371 472.078 371 468.474V233.526C371 229.922 362.046 227 351 227Z" fill="white" stroke="black" stroke-width="2"/>
<path d="M53.2273 246.182C53.2273 247.409 53.0057 248.47 52.5625 249.364C52.1193 250.258 51.5114 250.947 50.7386 251.432C49.9659 251.917 49.0833 252.159 48.0909 252.159C47.0985 252.159 46.2159 251.917 45.4432 251.432C44.6705 250.947 44.0625 250.258 43.6193 249.364C43.1761 248.47 42.9545 247.409 42.9545 246.182C42.9545 244.955 43.1761 243.894 43.6193 243C44.0625 242.106 44.6705 241.417 45.4432 240.932C46.2159 240.447 47.0985 240.205 48.0909 240.205C49.0833 240.205 49.9659 240.447 50.7386 240.932C51.5114 241.417 52.1193 242.106 52.5625 243C53.0057 243.894 53.2273 244.955 53.2273 246.182ZM51.8636 246.182C51.8636 245.174 51.6951 244.324 51.358 243.631C51.0246 242.938 50.572 242.413 50 242.057C49.4318 241.701 48.7955 241.523 48.0909 241.523C47.3864 241.523 46.7481 241.701 46.1761 242.057C45.608 242.413 45.1553 242.938 44.8182 243.631C44.4848 244.324 44.3182 245.174 44.3182 246.182C44.3182 247.189 44.4848 248.04 44.8182 248.733C45.1553 249.426 45.608 249.951 46.1761 250.307C46.7481 250.663 47.3864 250.841 48.0909 250.841C48.7955 250.841 49.4318 250.663 50 250.307C50.572 249.951 51.0246 249.426 51.358 248.733C51.6951 248.04 51.8636 247.189 51.8636 246.182ZM56.7557 240.364V252H55.4148V240.364H56.7557ZM62.5071 252.182C61.7798 252.182 61.1378 251.998 60.581 251.631C60.0241 251.259 59.5885 250.737 59.2741 250.062C58.9598 249.384 58.8026 248.583 58.8026 247.659C58.8026 246.742 58.9598 245.947 59.2741 245.273C59.5885 244.598 60.026 244.078 60.5866 243.71C61.1473 243.343 61.795 243.159 62.5298 243.159C63.098 243.159 63.5469 243.254 63.8764 243.443C64.2098 243.629 64.4635 243.841 64.6378 244.08C64.8158 244.314 64.9541 244.508 65.0526 244.659H65.1662V240.364H66.5071V252H65.2116V250.659H65.0526C64.9541 250.818 64.8139 251.019 64.6321 251.261C64.4503 251.5 64.1908 251.714 63.8537 251.903C63.5166 252.089 63.0677 252.182 62.5071 252.182ZM62.6889 250.977C63.2268 250.977 63.6813 250.837 64.0526 250.557C64.4238 250.273 64.706 249.881 64.8991 249.381C65.0923 248.877 65.1889 248.295 65.1889 247.636C65.1889 246.985 65.0942 246.415 64.9048 245.926C64.7154 245.434 64.4351 245.051 64.0639 244.778C63.6927 244.502 63.2344 244.364 62.6889 244.364C62.1207 244.364 61.6473 244.509 61.2685 244.801C60.8935 245.089 60.6113 245.481 60.4219 245.977C60.2363 246.47 60.1435 247.023 60.1435 247.636C60.1435 248.258 60.2382 248.822 60.4276 249.33C60.6207 249.833 60.9048 250.235 61.2798 250.534C61.6586 250.83 62.1283 250.977 62.6889 250.977ZM76.9446 252.182C76.2173 252.182 75.5753 251.998 75.0185 251.631C74.4616 251.259 74.026 250.737 73.7116 250.062C73.3973 249.384 73.2401 248.583 73.2401 247.659C73.2401 246.742 73.3973 245.947 73.7116 245.273C74.026 244.598 74.4635 244.078 75.0241 243.71C75.5848 243.343 76.2325 243.159 76.9673 243.159C77.5355 243.159 77.9844 243.254 78.3139 243.443C78.6473 243.629 78.901 243.841 79.0753 244.08C79.2533 244.314 79.3916 244.508 79.4901 244.659H79.6037V240.364H80.9446V252H79.6491V250.659H79.4901C79.3916 250.818 79.2514 251.019 79.0696 251.261C78.8878 251.5 78.6283 251.714 78.2912 251.903C77.9541 252.089 77.5052 252.182 76.9446 252.182ZM77.1264 250.977C77.6643 250.977 78.1188 250.837 78.4901 250.557C78.8613 250.273 79.1435 249.881 79.3366 249.381C79.5298 248.877 79.6264 248.295 79.6264 247.636C79.6264 246.985 79.5317 246.415 79.3423 245.926C79.1529 245.434 78.8726 245.051 78.5014 244.778C78.1302 244.502 77.6719 244.364 77.1264 244.364C76.5582 244.364 76.0848 244.509 75.706 244.801C75.331 245.089 75.0488 245.481 74.8594 245.977C74.6738 246.47 74.581 247.023 74.581 247.636C74.581 248.258 74.6757 248.822 74.8651 249.33C75.0582 249.833 75.3423 250.235 75.7173 250.534C76.0961 250.83 76.5658 250.977 77.1264 250.977ZM87.2457 252.182C86.4048 252.182 85.6795 251.996 85.0696 251.625C84.4635 251.25 83.9957 250.727 83.6662 250.057C83.3404 249.383 83.1776 248.598 83.1776 247.705C83.1776 246.811 83.3404 246.023 83.6662 245.341C83.9957 244.655 84.4541 244.121 85.0412 243.739C85.6321 243.352 86.3215 243.159 87.1094 243.159C87.5639 243.159 88.0128 243.235 88.456 243.386C88.8991 243.538 89.3026 243.784 89.6662 244.125C90.0298 244.462 90.3196 244.909 90.5355 245.466C90.7514 246.023 90.8594 246.708 90.8594 247.523V248.091H84.1321V246.932H89.4957C89.4957 246.439 89.3973 246 89.2003 245.614C89.0071 245.227 88.7306 244.922 88.3707 244.699C88.0147 244.475 87.5942 244.364 87.1094 244.364C86.5753 244.364 86.1132 244.496 85.723 244.761C85.3366 245.023 85.0393 245.364 84.831 245.784C84.6226 246.205 84.5185 246.655 84.5185 247.136V247.909C84.5185 248.568 84.6321 249.127 84.8594 249.585C85.0904 250.04 85.4105 250.386 85.8196 250.625C86.2287 250.86 86.7041 250.977 87.2457 250.977C87.598 250.977 87.9162 250.928 88.2003 250.83C88.4882 250.727 88.7363 250.576 88.9446 250.375C89.1529 250.17 89.3139 249.917 89.4276 249.614L90.723 249.977C90.5866 250.417 90.3575 250.803 90.0355 251.136C89.7135 251.466 89.3158 251.723 88.8423 251.909C88.3688 252.091 87.8366 252.182 87.2457 252.182ZM99.081 245.227L97.8764 245.568C97.8007 245.367 97.6889 245.172 97.5412 244.983C97.3973 244.79 97.2003 244.631 96.9503 244.506C96.7003 244.381 96.3802 244.318 95.9901 244.318C95.456 244.318 95.0109 244.441 94.6548 244.688C94.3026 244.93 94.1264 245.239 94.1264 245.614C94.1264 245.947 94.2476 246.21 94.4901 246.403C94.7325 246.597 95.1113 246.758 95.6264 246.886L96.9219 247.205C97.7022 247.394 98.2836 247.684 98.6662 248.074C99.0488 248.46 99.2401 248.958 99.2401 249.568C99.2401 250.068 99.0961 250.515 98.8082 250.909C98.5241 251.303 98.1264 251.614 97.6151 251.841C97.1037 252.068 96.509 252.182 95.831 252.182C94.9408 252.182 94.2041 251.989 93.6207 251.602C93.0374 251.216 92.6681 250.652 92.5128 249.909L93.7855 249.591C93.9067 250.061 94.1359 250.413 94.473 250.648C94.8139 250.883 95.259 251 95.8082 251C96.4332 251 96.9295 250.867 97.2969 250.602C97.6681 250.333 97.8537 250.011 97.8537 249.636C97.8537 249.333 97.7476 249.08 97.5355 248.875C97.3234 248.667 96.9976 248.511 96.5582 248.409L95.1037 248.068C94.3045 247.879 93.7173 247.585 93.3423 247.188C92.9711 246.786 92.7855 246.284 92.7855 245.682C92.7855 245.189 92.9238 244.754 93.2003 244.375C93.4806 243.996 93.8613 243.699 94.3423 243.483C94.8272 243.267 95.3764 243.159 95.9901 243.159C96.8537 243.159 97.5317 243.348 98.0241 243.727C98.5204 244.106 98.8726 244.606 99.081 245.227ZM104.804 252.182C103.986 252.182 103.281 251.989 102.69 251.602C102.099 251.216 101.645 250.684 101.327 250.006C101.009 249.328 100.849 248.553 100.849 247.682C100.849 246.795 101.012 246.013 101.338 245.335C101.668 244.653 102.126 244.121 102.713 243.739C103.304 243.352 103.993 243.159 104.781 243.159C105.395 243.159 105.948 243.273 106.44 243.5C106.933 243.727 107.336 244.045 107.651 244.455C107.965 244.864 108.16 245.341 108.236 245.886H106.895C106.793 245.489 106.565 245.136 106.213 244.83C105.865 244.519 105.395 244.364 104.804 244.364C104.281 244.364 103.823 244.5 103.429 244.773C103.039 245.042 102.734 245.422 102.514 245.915C102.298 246.403 102.19 246.977 102.19 247.636C102.19 248.311 102.296 248.898 102.509 249.398C102.724 249.898 103.027 250.286 103.418 250.562C103.812 250.839 104.274 250.977 104.804 250.977C105.152 250.977 105.469 250.917 105.753 250.795C106.037 250.674 106.277 250.5 106.474 250.273C106.671 250.045 106.812 249.773 106.895 249.455H108.236C108.16 249.97 107.973 250.434 107.673 250.847C107.378 251.256 106.986 251.581 106.497 251.824C106.012 252.062 105.448 252.182 104.804 252.182ZM110.196 252V243.273H111.491V244.591H111.582C111.741 244.159 112.029 243.809 112.446 243.54C112.863 243.271 113.332 243.136 113.855 243.136C113.954 243.136 114.077 243.138 114.224 243.142C114.372 243.146 114.484 243.152 114.56 243.159V244.523C114.514 244.511 114.41 244.494 114.247 244.472C114.088 244.445 113.92 244.432 113.741 244.432C113.317 244.432 112.938 244.521 112.605 244.699C112.276 244.873 112.014 245.116 111.821 245.426C111.632 245.733 111.537 246.083 111.537 246.477V252H110.196ZM116.149 252V243.273H117.49V252H116.149ZM116.831 241.818C116.57 241.818 116.344 241.729 116.155 241.551C115.969 241.373 115.876 241.159 115.876 240.909C115.876 240.659 115.969 240.445 116.155 240.267C116.344 240.089 116.57 240 116.831 240C117.092 240 117.316 240.089 117.501 240.267C117.691 240.445 117.786 240.659 117.786 240.909C117.786 241.159 117.691 241.373 117.501 241.551C117.316 241.729 117.092 241.818 116.831 241.818ZM119.946 255.273V243.273H121.241V244.659H121.401C121.499 244.508 121.635 244.314 121.81 244.08C121.988 243.841 122.241 243.629 122.571 243.443C122.904 243.254 123.355 243.159 123.923 243.159C124.658 243.159 125.306 243.343 125.866 243.71C126.427 244.078 126.865 244.598 127.179 245.273C127.493 245.947 127.651 246.742 127.651 247.659C127.651 248.583 127.493 249.384 127.179 250.062C126.865 250.737 126.429 251.259 125.872 251.631C125.315 251.998 124.673 252.182 123.946 252.182C123.385 252.182 122.937 252.089 122.599 251.903C122.262 251.714 122.003 251.5 121.821 251.261C121.639 251.019 121.499 250.818 121.401 250.659H121.287V255.273H119.946ZM121.264 247.636C121.264 248.295 121.361 248.877 121.554 249.381C121.747 249.881 122.029 250.273 122.401 250.557C122.772 250.837 123.226 250.977 123.764 250.977C124.325 250.977 124.793 250.83 125.168 250.534C125.546 250.235 125.83 249.833 126.02 249.33C126.213 248.822 126.31 248.258 126.31 247.636C126.31 247.023 126.215 246.47 126.026 245.977C125.84 245.481 125.558 245.089 125.179 244.801C124.804 244.509 124.332 244.364 123.764 244.364C123.219 244.364 122.76 244.502 122.389 244.778C122.018 245.051 121.738 245.434 121.548 245.926C121.359 246.415 121.264 246.985 121.264 247.636ZM133.491 243.273V244.409H128.969V243.273H133.491ZM130.287 241.182H131.628V249.5C131.628 249.879 131.683 250.163 131.793 250.352C131.906 250.538 132.05 250.663 132.224 250.727C132.402 250.788 132.59 250.818 132.787 250.818C132.935 250.818 133.056 250.811 133.151 250.795C133.245 250.777 133.321 250.761 133.378 250.75L133.651 251.955C133.56 251.989 133.433 252.023 133.27 252.057C133.107 252.095 132.901 252.114 132.651 252.114C132.272 252.114 131.901 252.032 131.537 251.869C131.177 251.706 130.878 251.458 130.639 251.125C130.404 250.792 130.287 250.371 130.287 249.864V241.182ZM135.509 252V243.273H136.849V252H135.509ZM136.19 241.818C135.929 241.818 135.704 241.729 135.514 241.551C135.329 241.373 135.236 241.159 135.236 240.909C135.236 240.659 135.329 240.445 135.514 240.267C135.704 240.089 135.929 240 136.19 240C136.452 240 136.675 240.089 136.861 240.267C137.05 240.445 137.145 240.659 137.145 240.909C137.145 241.159 137.05 241.373 136.861 241.551C136.675 241.729 136.452 241.818 136.19 241.818ZM142.851 252.182C142.063 252.182 141.372 251.994 140.777 251.619C140.186 251.244 139.724 250.72 139.391 250.045C139.061 249.371 138.896 248.583 138.896 247.682C138.896 246.773 139.061 245.979 139.391 245.301C139.724 244.623 140.186 244.097 140.777 243.722C141.372 243.347 142.063 243.159 142.851 243.159C143.639 243.159 144.328 243.347 144.919 243.722C145.514 244.097 145.976 244.623 146.305 245.301C146.639 245.979 146.805 246.773 146.805 247.682C146.805 248.583 146.639 249.371 146.305 250.045C145.976 250.72 145.514 251.244 144.919 251.619C144.328 251.994 143.639 252.182 142.851 252.182ZM142.851 250.977C143.449 250.977 143.942 250.824 144.328 250.517C144.714 250.21 145 249.807 145.186 249.307C145.372 248.807 145.464 248.265 145.464 247.682C145.464 247.098 145.372 246.555 145.186 246.051C145 245.547 144.714 245.14 144.328 244.83C143.942 244.519 143.449 244.364 142.851 244.364C142.252 244.364 141.76 244.519 141.374 244.83C140.987 245.14 140.701 245.547 140.516 246.051C140.33 246.555 140.237 247.098 140.237 247.682C140.237 248.265 140.33 248.807 140.516 249.307C140.701 249.807 140.987 250.21 141.374 250.517C141.76 250.824 142.252 250.977 142.851 250.977ZM150.193 246.75V252H148.852V243.273H150.148V244.636H150.261C150.466 244.193 150.777 243.837 151.193 243.568C151.61 243.295 152.148 243.159 152.807 243.159C153.398 243.159 153.915 243.28 154.358 243.523C154.801 243.761 155.146 244.125 155.392 244.614C155.638 245.098 155.761 245.712 155.761 246.455V252H154.42V246.545C154.42 245.86 154.242 245.326 153.886 244.943C153.53 244.557 153.042 244.364 152.42 244.364C151.992 244.364 151.61 244.456 151.273 244.642C150.939 244.828 150.676 245.098 150.483 245.455C150.29 245.811 150.193 246.242 150.193 246.75Z" fill="black"/>
<path d="M238.977 514H168.023C143.71 514 124 514.448 124 515V551C124 551.552 143.71 552 168.023 552H238.977C263.29 552 283 551.552 283 551V515C283 514.448 263.29 514 238.977 514Z" fill="#E1E1E1" stroke="black" stroke-width="2"/>
<path d="M178.394 529.818C178.33 529.278 178.071 528.859 177.616 528.561C177.162 528.263 176.604 528.114 175.944 528.114C175.461 528.114 175.038 528.192 174.676 528.348C174.317 528.504 174.037 528.719 173.834 528.993C173.635 529.266 173.536 529.577 173.536 529.925C173.536 530.216 173.605 530.466 173.744 530.676C173.886 530.882 174.067 531.054 174.287 531.192C174.507 531.327 174.738 531.439 174.979 531.528C175.221 531.613 175.443 531.683 175.645 531.736L176.753 532.034C177.037 532.109 177.353 532.212 177.701 532.343C178.053 532.474 178.389 532.654 178.708 532.881C179.031 533.105 179.298 533.392 179.507 533.744C179.717 534.096 179.821 534.527 179.821 535.038C179.821 535.628 179.667 536.161 179.358 536.636C179.053 537.112 178.605 537.49 178.016 537.771C177.43 538.051 176.718 538.192 175.88 538.192C175.098 538.192 174.422 538.066 173.85 537.814C173.282 537.561 172.835 537.21 172.508 536.759C172.185 536.308 172.002 535.784 171.959 535.188H173.323C173.358 535.599 173.497 535.94 173.738 536.21C173.983 536.477 174.292 536.675 174.665 536.807C175.042 536.935 175.446 536.999 175.88 536.999C176.384 536.999 176.837 536.917 177.238 536.754C177.639 536.587 177.957 536.356 178.191 536.061C178.426 535.763 178.543 535.415 178.543 535.017C178.543 534.655 178.442 534.36 178.239 534.133C178.037 533.906 177.771 533.721 177.44 533.579C177.11 533.437 176.753 533.312 176.37 533.206L175.027 532.822C174.175 532.577 173.5 532.228 173.003 531.773C172.506 531.319 172.258 530.724 172.258 529.989C172.258 529.378 172.423 528.845 172.753 528.391C173.087 527.933 173.534 527.577 174.095 527.325C174.66 527.07 175.29 526.942 175.986 526.942C176.689 526.942 177.314 527.068 177.861 527.32C178.408 527.569 178.841 527.909 179.161 528.343C179.484 528.776 179.655 529.268 179.672 529.818H178.394ZM184.231 538.192C183.712 538.192 183.242 538.094 182.819 537.899C182.396 537.7 182.061 537.414 181.812 537.041C181.564 536.665 181.439 536.21 181.439 535.678C181.439 535.209 181.532 534.829 181.716 534.538C181.901 534.243 182.148 534.012 182.457 533.845C182.766 533.678 183.107 533.554 183.48 533.472C183.856 533.387 184.234 533.32 184.614 533.27C185.111 533.206 185.514 533.158 185.823 533.126C186.136 533.091 186.363 533.032 186.505 532.95C186.651 532.869 186.723 532.727 186.723 532.524V532.482C186.723 531.956 186.58 531.548 186.292 531.256C186.008 530.965 185.576 530.82 184.998 530.82C184.398 530.82 183.927 530.951 183.586 531.214C183.245 531.477 183.005 531.757 182.867 532.055L181.674 531.629C181.887 531.132 182.171 530.745 182.526 530.468C182.885 530.187 183.275 529.992 183.698 529.882C184.124 529.768 184.543 529.712 184.955 529.712C185.218 529.712 185.52 529.744 185.861 529.808C186.205 529.868 186.537 529.994 186.857 530.186C187.18 530.377 187.448 530.667 187.661 531.054C187.874 531.441 187.981 531.96 187.981 532.609V538H186.723V536.892H186.66C186.574 537.07 186.432 537.26 186.233 537.462C186.035 537.664 185.77 537.837 185.44 537.979C185.11 538.121 184.706 538.192 184.231 538.192ZM184.422 537.062C184.92 537.062 185.339 536.965 185.679 536.77C186.024 536.574 186.283 536.322 186.457 536.013C186.635 535.704 186.723 535.379 186.723 535.038V533.888C186.67 533.952 186.553 534.01 186.372 534.064C186.194 534.113 185.988 534.158 185.754 534.197C185.523 534.232 185.298 534.264 185.078 534.293C184.861 534.317 184.685 534.339 184.55 534.357C184.223 534.399 183.918 534.468 183.634 534.564C183.353 534.657 183.126 534.797 182.952 534.985C182.782 535.17 182.697 535.422 182.697 535.741C182.697 536.178 182.858 536.509 183.181 536.732C183.508 536.952 183.922 537.062 184.422 537.062ZM196.672 529.818L193.647 538H192.368L189.343 529.818H190.707L192.965 536.338H193.05L195.309 529.818H196.672ZM201.469 538.17C200.681 538.17 200.001 537.996 199.429 537.648C198.861 537.297 198.422 536.807 198.113 536.178C197.808 535.546 197.655 534.811 197.655 533.973C197.655 533.135 197.808 532.396 198.113 531.757C198.422 531.114 198.852 530.614 199.402 530.255C199.956 529.893 200.603 529.712 201.341 529.712C201.767 529.712 202.188 529.783 202.604 529.925C203.019 530.067 203.397 530.298 203.738 530.617C204.079 530.933 204.351 531.352 204.553 531.874C204.756 532.396 204.857 533.039 204.857 533.803V534.335H198.55V533.249H203.579C203.579 532.787 203.486 532.375 203.302 532.013C203.12 531.651 202.861 531.365 202.524 531.155C202.19 530.946 201.796 530.841 201.341 530.841C200.841 530.841 200.407 530.965 200.042 531.214C199.679 531.459 199.401 531.778 199.205 532.173C199.01 532.567 198.912 532.989 198.912 533.44V534.165C198.912 534.783 199.019 535.306 199.232 535.736C199.449 536.162 199.749 536.487 200.132 536.711C200.516 536.931 200.961 537.041 201.469 537.041C201.799 537.041 202.098 536.995 202.364 536.903C202.634 536.807 202.867 536.665 203.062 536.477C203.257 536.285 203.408 536.047 203.515 535.763L204.729 536.104C204.601 536.516 204.386 536.878 204.085 537.19C203.783 537.499 203.41 537.741 202.966 537.915C202.522 538.085 202.023 538.17 201.469 538.17ZM214.418 538.17C213.63 538.17 212.95 537.996 212.378 537.648C211.81 537.297 211.371 536.807 211.063 536.178C210.757 535.546 210.604 534.811 210.604 533.973C210.604 533.135 210.757 532.396 211.063 531.757C211.371 531.114 211.801 530.614 212.352 530.255C212.906 529.893 213.552 529.712 214.291 529.712C214.717 529.712 215.137 529.783 215.553 529.925C215.968 530.067 216.347 530.298 216.688 530.617C217.028 530.933 217.3 531.352 217.503 531.874C217.705 532.396 217.806 533.039 217.806 533.803V534.335H211.499V533.249H216.528C216.528 532.787 216.435 532.375 216.251 532.013C216.07 531.651 215.81 531.365 215.473 531.155C215.139 530.946 214.745 530.841 214.291 530.841C213.79 530.841 213.357 530.965 212.991 531.214C212.629 531.459 212.35 531.778 212.155 532.173C211.959 532.567 211.862 532.989 211.862 533.44V534.165C211.862 534.783 211.968 535.306 212.181 535.736C212.398 536.162 212.698 536.487 213.081 536.711C213.465 536.931 213.911 537.041 214.418 537.041C214.749 537.041 215.047 536.995 215.313 536.903C215.583 536.807 215.816 536.665 216.011 536.477C216.206 536.285 216.357 536.047 216.464 535.763L217.678 536.104C217.55 536.516 217.336 536.878 217.034 537.19C216.732 537.499 216.359 537.741 215.915 537.915C215.471 538.085 214.972 538.17 214.418 538.17ZM222.808 538.17C222.126 538.17 221.524 537.998 221.002 537.654C220.48 537.306 220.072 536.816 219.777 536.184C219.482 535.548 219.335 534.797 219.335 533.93C219.335 533.071 219.482 532.325 219.777 531.693C220.072 531.061 220.482 530.573 221.008 530.228C221.533 529.884 222.14 529.712 222.829 529.712C223.362 529.712 223.783 529.8 224.092 529.978C224.404 530.152 224.642 530.351 224.805 530.575C224.972 530.795 225.102 530.976 225.194 531.118H225.301V527.091H226.558V538H225.343V536.743H225.194C225.102 536.892 224.971 537.08 224.8 537.308C224.63 537.531 224.386 537.732 224.07 537.909C223.754 538.083 223.333 538.17 222.808 538.17ZM222.978 537.041C223.483 537.041 223.909 536.91 224.257 536.647C224.605 536.381 224.869 536.013 225.05 535.544C225.232 535.072 225.322 534.527 225.322 533.909C225.322 533.298 225.233 532.764 225.056 532.306C224.878 531.844 224.615 531.485 224.267 531.23C223.919 530.971 223.49 530.841 222.978 530.841C222.446 530.841 222.002 530.978 221.647 531.251C221.295 531.521 221.031 531.888 220.853 532.354C220.679 532.815 220.592 533.334 220.592 533.909C220.592 534.491 220.681 535.021 220.858 535.496C221.039 535.969 221.306 536.345 221.657 536.626C222.012 536.903 222.453 537.041 222.978 537.041ZM229.035 538V529.818H230.292V538H229.035ZM229.674 528.455C229.429 528.455 229.218 528.371 229.04 528.204C228.866 528.037 228.779 527.837 228.779 527.602C228.779 527.368 228.866 527.167 229.04 527C229.218 526.833 229.429 526.75 229.674 526.75C229.919 526.75 230.129 526.833 230.303 527C230.48 527.167 230.569 527.368 230.569 527.602C230.569 527.837 230.48 528.037 230.303 528.204C230.129 528.371 229.919 528.455 229.674 528.455ZM236.153 529.818V530.884H231.913V529.818H236.153ZM233.148 527.858H234.405V535.656C234.405 536.011 234.457 536.278 234.56 536.455C234.667 536.629 234.801 536.746 234.965 536.807C235.132 536.864 235.307 536.892 235.492 536.892C235.631 536.892 235.744 536.885 235.833 536.871C235.922 536.853 235.993 536.839 236.046 536.828L236.302 537.957C236.217 537.989 236.098 538.021 235.945 538.053C235.792 538.089 235.599 538.107 235.364 538.107C235.009 538.107 234.661 538.03 234.32 537.877C233.983 537.725 233.702 537.492 233.479 537.18C233.258 536.867 233.148 536.473 233.148 535.997V527.858Z" fill="black"/>
</g>
<defs>
<clipPath id="clip0_1_221">
<rect width="400" height="800" fill="white"/>
</clipPath>
</defs>
</svg>
