<?xml version="1.0" encoding="us-ascii" standalone="no"?><svg xmlns="http://www.w3.org/2000/svg" xmlns:xlink="http://www.w3.org/1999/xlink" contentStyleType="text/css" height="499px" preserveAspectRatio="none" style="width:982px;height:499px;background:#FFFFFF;" version="1.1" viewBox="0 0 982 499" width="982px" zoomAndPan="magnify"><defs/><g><line style="stroke:#181818;stroke-width:0.5;stroke-dasharray:5.0,5.0;" x1="24" x2="24" y1="81.2969" y2="418.625"/><line style="stroke:#181818;stroke-width:0.5;stroke-dasharray:5.0,5.0;" x1="198" x2="198" y1="81.2969" y2="418.625"/><line style="stroke:#181818;stroke-width:0.5;stroke-dasharray:5.0,5.0;" x1="326.5" x2="326.5" y1="81.2969" y2="418.625"/><line style="stroke:#181818;stroke-width:0.5;stroke-dasharray:5.0,5.0;" x1="445.5" x2="445.5" y1="81.2969" y2="418.625"/><line style="stroke:#181818;stroke-width:0.5;stroke-dasharray:5.0,5.0;" x1="583.5" x2="583.5" y1="81.2969" y2="418.625"/><text fill="#000000" font-family="sans-serif" font-size="14" lengthAdjust="spacing" textLength="32" x="5" y="77.9951">User</text><ellipse cx="24" cy="13.5" fill="#E2E2F0" rx="8" ry="8" style="stroke:#181818;stroke-width:0.5;"/><path d="M24,21.5 L24,48.5 M11,29.5 L37,29.5 M24,48.5 L11,63.5 M24,48.5 L37,63.5 " fill="none" style="stroke:#181818;stroke-width:0.5;"/><text fill="#000000" font-family="sans-serif" font-size="14" lengthAdjust="spacing" textLength="32" x="5" y="430.6201">User</text><ellipse cx="24" cy="442.4219" fill="#E2E2F0" rx="8" ry="8" style="stroke:#181818;stroke-width:0.5;"/><path d="M24,450.4219 L24,477.4219 M11,458.4219 L37,458.4219 M24,477.4219 L11,492.4219 M24,477.4219 L37,492.4219 " fill="none" style="stroke:#181818;stroke-width:0.5;"/><rect fill="#E2E2F0" height="30.2969" rx="2.5" ry="2.5" style="stroke:#181818;stroke-width:0.5;" width="114" x="141" y="50"/><text fill="#000000" font-family="sans-serif" font-size="14" lengthAdjust="spacing" textLength="100" x="148" y="69.9951">TaskController</text><rect fill="#E2E2F0" height="30.2969" rx="2.5" ry="2.5" style="stroke:#181818;stroke-width:0.5;" width="114" x="141" y="417.625"/><text fill="#000000" font-family="sans-serif" font-size="14" lengthAdjust="spacing" textLength="100" x="148" y="437.6201">TaskController</text><rect fill="#E2E2F0" height="30.2969" rx="2.5" ry="2.5" style="stroke:#181818;stroke-width:0.5;" width="97" x="278.5" y="50"/><text fill="#000000" font-family="sans-serif" font-size="14" lengthAdjust="spacing" textLength="83" x="285.5" y="69.9951">TaskService</text><rect fill="#E2E2F0" height="30.2969" rx="2.5" ry="2.5" style="stroke:#181818;stroke-width:0.5;" width="97" x="278.5" y="417.625"/><text fill="#000000" font-family="sans-serif" font-size="14" lengthAdjust="spacing" textLength="83" x="285.5" y="437.6201">TaskService</text><rect fill="#E2E2F0" height="30.2969" rx="2.5" ry="2.5" style="stroke:#181818;stroke-width:0.5;" width="121" x="385.5" y="50"/><text fill="#000000" font-family="sans-serif" font-size="14" lengthAdjust="spacing" textLength="107" x="392.5" y="69.9951">TaskRepository</text><rect fill="#E2E2F0" height="30.2969" rx="2.5" ry="2.5" style="stroke:#181818;stroke-width:0.5;" width="121" x="385.5" y="417.625"/><text fill="#000000" font-family="sans-serif" font-size="14" lengthAdjust="spacing" textLength="107" x="392.5" y="437.6201">TaskRepository</text><rect fill="#E2E2F0" height="30.2969" rx="2.5" ry="2.5" style="stroke:#181818;stroke-width:0.5;" width="135" x="516.5" y="50"/><text fill="#000000" font-family="sans-serif" font-size="14" lengthAdjust="spacing" textLength="121" x="523.5" y="69.9951">TaskReadMapper</text><rect fill="#E2E2F0" height="30.2969" rx="2.5" ry="2.5" style="stroke:#181818;stroke-width:0.5;" width="135" x="516.5" y="417.625"/><text fill="#000000" font-family="sans-serif" font-size="14" lengthAdjust="spacing" textLength="121" x="523.5" y="437.6201">TaskReadMapper</text><polygon fill="#181818" points="186,108.4297,196,112.4297,186,116.4297,190,112.4297" style="stroke:#181818;stroke-width:1.0;"/><line style="stroke:#181818;stroke-width:1.0;" x1="24" x2="192" y1="112.4297" y2="112.4297"/><text fill="#000000" font-family="sans-serif" font-size="13" lengthAdjust="spacing" textLength="60" x="31" y="107.3638">GET /task</text><polygon fill="#181818" points="315,137.5625,325,141.5625,315,145.5625,319,141.5625" style="stroke:#181818;stroke-width:1.0;"/><line style="stroke:#181818;stroke-width:1.0;" x1="198" x2="321" y1="141.5625" y2="141.5625"/><text fill="#000000" font-family="sans-serif" font-size="13" lengthAdjust="spacing" textLength="43" x="205" y="136.4966">listAll()</text><polygon fill="#181818" points="434,166.6953,444,170.6953,434,174.6953,438,170.6953" style="stroke:#181818;stroke-width:1.0;"/><line style="stroke:#181818;stroke-width:1.0;" x1="327" x2="440" y1="170.6953" y2="170.6953"/><text fill="#000000" font-family="sans-serif" font-size="13" lengthAdjust="spacing" textLength="48" x="334" y="165.6294">findAll()</text><polygon fill="#181818" points="338,195.8281,328,199.8281,338,203.8281,334,199.8281" style="stroke:#181818;stroke-width:1.0;"/><line style="stroke:#181818;stroke-width:1.0;" x1="332" x2="445" y1="199.8281" y2="199.8281"/><text fill="#000000" font-family="sans-serif" font-size="13" lengthAdjust="spacing" textLength="73" x="344" y="194.7622">List&lt;Task&gt;</text><polygon fill="#181818" points="572,224.9609,582,228.9609,572,232.9609,576,228.9609" style="stroke:#181818;stroke-width:1.0;"/><line style="stroke:#181818;stroke-width:1.0;" x1="327" x2="578" y1="228.9609" y2="228.9609"/><text fill="#000000" font-family="sans-serif" font-size="13" lengthAdjust="spacing" textLength="171" x="334" y="223.895">mapToReadTaskList(tasks)</text><line style="stroke:#181818;stroke-width:1.0;" x1="584" x2="626" y1="258.0938" y2="258.0938"/><line style="stroke:#181818;stroke-width:1.0;" x1="626" x2="626" y1="258.0938" y2="271.0938"/><line style="stroke:#181818;stroke-width:1.0;" x1="585" x2="626" y1="271.0938" y2="271.0938"/><polygon fill="#181818" points="595,267.0938,585,271.0938,595,275.0938,591,271.0938" style="stroke:#181818;stroke-width:1.0;"/><text fill="#000000" font-family="sans-serif" font-size="13" lengthAdjust="spacing" textLength="142" x="591" y="253.0278">mapToReadTask(task)</text><line style="stroke:#181818;stroke-width:1.0;" x1="584" x2="626" y1="300.2266" y2="300.2266"/><line style="stroke:#181818;stroke-width:1.0;" x1="626" x2="626" y1="300.2266" y2="313.2266"/><line style="stroke:#181818;stroke-width:1.0;" x1="585" x2="626" y1="313.2266" y2="313.2266"/><polygon fill="#181818" points="595,309.2266,585,313.2266,595,317.2266,591,313.2266" style="stroke:#181818;stroke-width:1.0;"/><text fill="#000000" font-family="sans-serif" font-size="13" lengthAdjust="spacing" textLength="384" x="591" y="295.1606">calculateStatusDescription(type, dueDate, dueDays, status)</text><polygon fill="#181818" points="338,338.3594,328,342.3594,338,346.3594,334,342.3594" style="stroke:#181818;stroke-width:1.0;"/><line style="stroke:#181818;stroke-width:1.0;" x1="332" x2="583" y1="342.3594" y2="342.3594"/><text fill="#000000" font-family="sans-serif" font-size="13" lengthAdjust="spacing" textLength="105" x="344" y="337.2935">List&lt;ReadTask&gt;</text><polygon fill="#181818" points="209,367.4922,199,371.4922,209,375.4922,205,371.4922" style="stroke:#181818;stroke-width:1.0;"/><line style="stroke:#181818;stroke-width:1.0;" x1="203" x2="326" y1="371.4922" y2="371.4922"/><text fill="#000000" font-family="sans-serif" font-size="13" lengthAdjust="spacing" textLength="105" x="215" y="366.4263">List&lt;ReadTask&gt;</text><polygon fill="#181818" points="35,396.625,25,400.625,35,404.625,31,400.625" style="stroke:#181818;stroke-width:1.0;"/><line style="stroke:#181818;stroke-width:1.0;" x1="29" x2="197" y1="400.625" y2="400.625"/><text fill="#000000" font-family="sans-serif" font-size="13" lengthAdjust="spacing" textLength="150" x="41" y="395.5591">HTTP 200 (List of tasks)</text><!--SRC=[TP31IiGm48RlUOgXfnPMN3mMAOWhUb2GtVW0Gvg5O6n2PYhqxKsswJOLlIKp7_zyCwZO1VWW7OJm6DWeut5WU7G31sUj3e04bKJwN4lL1Ztfy6sKldBvluMEsZioSTPqvTRI5dr3xuknHutzNAg4IA9mqnLwBJm_IRZbI8f2EZBPemLhY1-ihHkngCRkEhs5indw6IWqouJNc72VPBeoOhPguGkzT4ap4GcjamqrGkHL_cClNFC7fT2gqIBh4oEFTD2aWl5it53pvFKE-b4VOZi_9je1NSWoR37D-ilGJfGxb8VyXMslcIxVmekKxt2ttqETO71doAl-0000]--></g></svg>