<?xml version="1.0" encoding="us-ascii" standalone="no"?><svg xmlns="http://www.w3.org/2000/svg" xmlns:xlink="http://www.w3.org/1999/xlink" contentStyleType="text/css" height="827px" preserveAspectRatio="none" style="width:933px;height:827px;background:#FFFFFF;" version="1.1" viewBox="0 0 933 827" width="933px" zoomAndPan="magnify"><defs/><g><rect fill="#FFFFFF" height="394.7266" style="stroke:#181818;stroke-width:1.0;" width="10" x="339" y="112.4297"/><rect fill="#FFFFFF" height="29.1328" style="stroke:#181818;stroke-width:1.0;" width="10" x="339" y="692.2344"/><rect fill="#FFFFFF" height="365.5938" style="stroke:#181818;stroke-width:1.0;" width="10" x="454.5" y="141.5625"/><rect fill="#FFFFFF" height="29.1328" style="stroke:#181818;stroke-width:1.0;" width="10" x="454.5" y="692.2344"/><rect fill="#FFFFFF" height="29.1328" style="stroke:#181818;stroke-width:1.0;" width="10" x="695.5" y="361.4922"/><rect fill="#FFFFFF" height="29.1328" style="stroke:#181818;stroke-width:1.0;" width="10" x="833.5" y="419.7578"/><rect fill="none" height="425.1406" style="stroke:#000000;stroke-width:1.5;" width="916" x="10" y="214.8281"/><rect fill="none" height="292.9688" style="stroke:#000000;stroke-width:1.5;" width="896" x="20" y="281.0938"/><rect fill="none" height="75.3984" style="stroke:#000000;stroke-width:1.5;" width="498" x="20" y="653.9688"/><line style="stroke:#181818;stroke-width:0.5;stroke-dasharray:5.0,5.0;" x1="49" x2="49" y1="81.2969" y2="746.3672"/><line style="stroke:#181818;stroke-width:0.5;stroke-dasharray:5.0,5.0;" x1="344" x2="344" y1="81.2969" y2="746.3672"/><line style="stroke:#181818;stroke-width:0.5;stroke-dasharray:5.0,5.0;" x1="459" x2="459" y1="81.2969" y2="746.3672"/><line style="stroke:#181818;stroke-width:0.5;stroke-dasharray:5.0,5.0;" x1="700" x2="700" y1="81.2969" y2="746.3672"/><line style="stroke:#181818;stroke-width:0.5;stroke-dasharray:5.0,5.0;" x1="838" x2="838" y1="81.2969" y2="746.3672"/><text fill="#000000" font-family="sans-serif" font-size="14" lengthAdjust="spacing" textLength="32" x="30" y="77.9951">User</text><ellipse cx="49" cy="13.5" fill="#E2E2F0" rx="8" ry="8" style="stroke:#181818;stroke-width:0.5;"/><path d="M49,21.5 L49,48.5 M36,29.5 L62,29.5 M49,48.5 L36,63.5 M49,48.5 L62,63.5 " fill="none" style="stroke:#181818;stroke-width:0.5;"/><text fill="#000000" font-family="sans-serif" font-size="14" lengthAdjust="spacing" textLength="32" x="30" y="758.3623">User</text><ellipse cx="49" cy="770.1641" fill="#E2E2F0" rx="8" ry="8" style="stroke:#181818;stroke-width:0.5;"/><path d="M49,778.1641 L49,805.1641 M36,786.1641 L62,786.1641 M49,805.1641 L36,820.1641 M49,805.1641 L62,820.1641 " fill="none" style="stroke:#181818;stroke-width:0.5;"/><rect fill="#E2E2F0" height="30.2969" rx="2.5" ry="2.5" style="stroke:#181818;stroke-width:0.5;" width="114" x="287" y="50"/><text fill="#000000" font-family="sans-serif" font-size="14" lengthAdjust="spacing" textLength="100" x="294" y="69.9951">TaskController</text><rect fill="#E2E2F0" height="30.2969" rx="2.5" ry="2.5" style="stroke:#181818;stroke-width:0.5;" width="114" x="287" y="745.3672"/><text fill="#000000" font-family="sans-serif" font-size="14" lengthAdjust="spacing" textLength="100" x="294" y="765.3623">TaskController</text><rect fill="#E2E2F0" height="30.2969" rx="2.5" ry="2.5" style="stroke:#181818;stroke-width:0.5;" width="97" x="411" y="50"/><text fill="#000000" font-family="sans-serif" font-size="14" lengthAdjust="spacing" textLength="83" x="418" y="69.9951">TaskService</text><rect fill="#E2E2F0" height="30.2969" rx="2.5" ry="2.5" style="stroke:#181818;stroke-width:0.5;" width="97" x="411" y="745.3672"/><text fill="#000000" font-family="sans-serif" font-size="14" lengthAdjust="spacing" textLength="83" x="418" y="765.3623">TaskService</text><rect fill="#E2E2F0" height="30.2969" rx="2.5" ry="2.5" style="stroke:#181818;stroke-width:0.5;" width="121" x="640" y="50"/><text fill="#000000" font-family="sans-serif" font-size="14" lengthAdjust="spacing" textLength="107" x="647" y="69.9951">TaskRepository</text><rect fill="#E2E2F0" height="30.2969" rx="2.5" ry="2.5" style="stroke:#181818;stroke-width:0.5;" width="121" x="640" y="745.3672"/><text fill="#000000" font-family="sans-serif" font-size="14" lengthAdjust="spacing" textLength="107" x="647" y="765.3623">TaskRepository</text><rect fill="#E2E2F0" height="30.2969" rx="2.5" ry="2.5" style="stroke:#181818;stroke-width:0.5;" width="135" x="771" y="50"/><text fill="#000000" font-family="sans-serif" font-size="14" lengthAdjust="spacing" textLength="121" x="778" y="69.9951">TaskReadMapper</text><rect fill="#E2E2F0" height="30.2969" rx="2.5" ry="2.5" style="stroke:#181818;stroke-width:0.5;" width="135" x="771" y="745.3672"/><text fill="#000000" font-family="sans-serif" font-size="14" lengthAdjust="spacing" textLength="121" x="778" y="765.3623">TaskReadMapper</text><rect fill="#FFFFFF" height="394.7266" style="stroke:#181818;stroke-width:1.0;" width="10" x="339" y="112.4297"/><rect fill="#FFFFFF" height="29.1328" style="stroke:#181818;stroke-width:1.0;" width="10" x="339" y="692.2344"/><rect fill="#FFFFFF" height="365.5938" style="stroke:#181818;stroke-width:1.0;" width="10" x="454.5" y="141.5625"/><rect fill="#FFFFFF" height="29.1328" style="stroke:#181818;stroke-width:1.0;" width="10" x="454.5" y="692.2344"/><rect fill="#FFFFFF" height="29.1328" style="stroke:#181818;stroke-width:1.0;" width="10" x="695.5" y="361.4922"/><rect fill="#FFFFFF" height="29.1328" style="stroke:#181818;stroke-width:1.0;" width="10" x="833.5" y="419.7578"/><polygon fill="#181818" points="327,108.4297,337,112.4297,327,116.4297,331,112.4297" style="stroke:#181818;stroke-width:1.0;"/><line style="stroke:#181818;stroke-width:1.0;" x1="49" x2="333" y1="112.4297" y2="112.4297"/><text fill="#000000" font-family="sans-serif" font-size="13" lengthAdjust="spacing" textLength="145" x="56" y="107.3638">PATCH /task/{id}/done</text><polygon fill="#181818" points="442.5,137.5625,452.5,141.5625,442.5,145.5625,446.5,141.5625" style="stroke:#181818;stroke-width:1.0;"/><line style="stroke:#181818;stroke-width:1.0;" x1="349" x2="448.5" y1="141.5625" y2="141.5625"/><text fill="#000000" font-family="sans-serif" font-size="13" lengthAdjust="spacing" textLength="81" x="356" y="136.4966">complete(id)</text><polygon fill="#181818" points="688.5,166.6953,698.5,170.6953,688.5,174.6953,692.5,170.6953" style="stroke:#181818;stroke-width:1.0;"/><line style="stroke:#181818;stroke-width:1.0;" x1="464.5" x2="694.5" y1="170.6953" y2="170.6953"/><text fill="#000000" font-family="sans-serif" font-size="13" lengthAdjust="spacing" textLength="71" x="471.5" y="165.6294">findById(id)</text><polygon fill="#181818" points="475.5,195.8281,465.5,199.8281,475.5,203.8281,471.5,199.8281" style="stroke:#181818;stroke-width:1.0;"/><line style="stroke:#181818;stroke-width:1.0;stroke-dasharray:2.0,2.0;" x1="469.5" x2="699.5" y1="199.8281" y2="199.8281"/><text fill="#000000" font-family="sans-serif" font-size="13" lengthAdjust="spacing" textLength="104" x="481.5" y="194.7622">Optional&lt;Task&gt;</text><path d="M10,214.8281 L74,214.8281 L74,221.9609 L64,231.9609 L10,231.9609 L10,214.8281 " fill="#EEEEEE" style="stroke:#000000;stroke-width:1.5;"/><rect fill="none" height="425.1406" style="stroke:#000000;stroke-width:1.5;" width="916" x="10" y="214.8281"/><text fill="#000000" font-family="sans-serif" font-size="13" font-weight="bold" lengthAdjust="spacing" textLength="19" x="25" y="227.895">alt</text><text fill="#000000" font-family="sans-serif" font-size="11" font-weight="bold" lengthAdjust="spacing" textLength="81" x="89" y="227.0386">[Task found]</text><line style="stroke:#181818;stroke-width:1.0;" x1="464.5" x2="506.5" y1="253.0938" y2="253.0938"/><line style="stroke:#181818;stroke-width:1.0;" x1="506.5" x2="506.5" y1="253.0938" y2="266.0938"/><line style="stroke:#181818;stroke-width:1.0;" x1="465.5" x2="506.5" y1="266.0938" y2="266.0938"/><polygon fill="#181818" points="475.5,262.0938,465.5,266.0938,475.5,270.0938,471.5,266.0938" style="stroke:#181818;stroke-width:1.0;"/><text fill="#000000" font-family="sans-serif" font-size="13" lengthAdjust="spacing" textLength="145" x="471.5" y="248.0278">get Task from Optional</text><path d="M20,281.0938 L84,281.0938 L84,288.2266 L74,298.2266 L20,298.2266 L20,281.0938 " fill="#EEEEEE" style="stroke:#000000;stroke-width:1.5;"/><rect fill="none" height="292.9688" style="stroke:#000000;stroke-width:1.5;" width="896" x="20" y="281.0938"/><text fill="#000000" font-family="sans-serif" font-size="13" font-weight="bold" lengthAdjust="spacing" textLength="19" x="35" y="294.1606">alt</text><text fill="#000000" font-family="sans-serif" font-size="11" font-weight="bold" lengthAdjust="spacing" textLength="136" x="99" y="293.3042">[Task not completed]</text><line style="stroke:#181818;stroke-width:1.0;" x1="464.5" x2="506.5" y1="319.3594" y2="319.3594"/><line style="stroke:#181818;stroke-width:1.0;" x1="506.5" x2="506.5" y1="319.3594" y2="332.3594"/><line style="stroke:#181818;stroke-width:1.0;" x1="465.5" x2="506.5" y1="332.3594" y2="332.3594"/><polygon fill="#181818" points="475.5,328.3594,465.5,332.3594,475.5,336.3594,471.5,332.3594" style="stroke:#181818;stroke-width:1.0;"/><text fill="#000000" font-family="sans-serif" font-size="13" lengthAdjust="spacing" textLength="217" x="471.5" y="314.2935">setStatus(TaskStatus.Completed)</text><polygon fill="#181818" points="683.5,357.4922,693.5,361.4922,683.5,365.4922,687.5,361.4922" style="stroke:#181818;stroke-width:1.0;"/><line style="stroke:#181818;stroke-width:1.0;" x1="464.5" x2="689.5" y1="361.4922" y2="361.4922"/><text fill="#000000" font-family="sans-serif" font-size="13" lengthAdjust="spacing" textLength="67" x="471.5" y="356.4263">save(task)</text><polygon fill="#181818" points="475.5,386.625,465.5,390.625,475.5,394.625,471.5,390.625" style="stroke:#181818;stroke-width:1.0;"/><line style="stroke:#181818;stroke-width:1.0;stroke-dasharray:2.0,2.0;" x1="469.5" x2="699.5" y1="390.625" y2="390.625"/><text fill="#000000" font-family="sans-serif" font-size="13" lengthAdjust="spacing" textLength="29" x="481.5" y="385.5591">Task</text><polygon fill="#181818" points="821.5,415.7578,831.5,419.7578,821.5,423.7578,825.5,419.7578" style="stroke:#181818;stroke-width:1.0;"/><line style="stroke:#181818;stroke-width:1.0;" x1="464.5" x2="827.5" y1="419.7578" y2="419.7578"/><text fill="#000000" font-family="sans-serif" font-size="13" lengthAdjust="spacing" textLength="182" x="471.5" y="414.6919">mapToReadTask(savedTask)</text><polygon fill="#181818" points="475.5,444.8906,465.5,448.8906,475.5,452.8906,471.5,448.8906" style="stroke:#181818;stroke-width:1.0;"/><line style="stroke:#181818;stroke-width:1.0;stroke-dasharray:2.0,2.0;" x1="469.5" x2="837.5" y1="448.8906" y2="448.8906"/><text fill="#000000" font-family="sans-serif" font-size="13" lengthAdjust="spacing" textLength="61" x="481.5" y="443.8247">ReadTask</text><polygon fill="#181818" points="360,474.0234,350,478.0234,360,482.0234,356,478.0234" style="stroke:#181818;stroke-width:1.0;"/><line style="stroke:#181818;stroke-width:1.0;stroke-dasharray:2.0,2.0;" x1="354" x2="453.5" y1="478.0234" y2="478.0234"/><text fill="#000000" font-family="sans-serif" font-size="13" lengthAdjust="spacing" textLength="61" x="366" y="472.9575">ReadTask</text><polygon fill="#181818" points="60,503.1563,50,507.1563,60,511.1563,56,507.1563" style="stroke:#181818;stroke-width:1.0;"/><line style="stroke:#181818;stroke-width:1.0;stroke-dasharray:2.0,2.0;" x1="54" x2="343" y1="507.1563" y2="507.1563"/><text fill="#000000" font-family="sans-serif" font-size="13" lengthAdjust="spacing" textLength="266" x="66" y="502.0903">HTTP 200 (Tarefa conclu&#237;da com sucesso)</text><line style="stroke:#000000;stroke-width:1.0;stroke-dasharray:2.0,2.0;" x1="20" x2="916" y1="516.1563" y2="516.1563"/><text fill="#000000" font-family="sans-serif" font-size="11" font-weight="bold" lengthAdjust="spacing" textLength="163" x="25" y="526.3667">[Task already completed]</text><rect fill="none" height="39.1016" style="stroke:#000000;stroke-width:1.5;" width="150" x="408" y="529.9609"/><path d="M408,529.9609 L474,529.9609 L474,536.9609 L464,546.9609 L408,546.9609 L408,529.9609 " fill="#EEEEEE" style="stroke:#000000;stroke-width:2.0;"/><text fill="#000000" font-family="sans-serif" font-size="13" font-weight="bold" lengthAdjust="spacing" textLength="21" x="421" y="544.0278">ref</text><text fill="#000000" font-family="sans-serif" font-size="12" lengthAdjust="spacing" textLength="134" x="412" y="562.0996">Task n&#227;o encontrada</text><line style="stroke:#000000;stroke-width:1.0;stroke-dasharray:2.0,2.0;" x1="10" x2="926" y1="582.0625" y2="582.0625"/><text fill="#000000" font-family="sans-serif" font-size="11" font-weight="bold" lengthAdjust="spacing" textLength="106" x="15" y="592.2729">[Task not found]</text><rect fill="none" height="39.1016" style="stroke:#000000;stroke-width:1.5;" width="150" x="408" y="595.8672"/><path d="M408,595.8672 L474,595.8672 L474,602.8672 L464,612.8672 L408,612.8672 L408,595.8672 " fill="#EEEEEE" style="stroke:#000000;stroke-width:2.0;"/><text fill="#000000" font-family="sans-serif" font-size="13" font-weight="bold" lengthAdjust="spacing" textLength="21" x="421" y="609.9341">ref</text><text fill="#000000" font-family="sans-serif" font-size="12" lengthAdjust="spacing" textLength="134" x="412" y="628.0059">Task n&#227;o encontrada</text><path d="M20,653.9688 L220,653.9688 L220,661.1016 L210,671.1016 L20,671.1016 L20,653.9688 " fill="#EEEEEE" style="stroke:#000000;stroke-width:1.5;"/><rect fill="none" height="75.3984" style="stroke:#000000;stroke-width:1.5;" width="498" x="20" y="653.9688"/><text fill="#000000" font-family="sans-serif" font-size="13" font-weight="bold" lengthAdjust="spacing" textLength="155" x="35" y="667.0356">Task n&#227;o encontrada</text><polygon fill="#181818" points="360,688.2344,350,692.2344,360,696.2344,356,692.2344" style="stroke:#181818;stroke-width:1.0;"/><line style="stroke:#181818;stroke-width:1.0;" x1="354" x2="453.5" y1="692.2344" y2="692.2344"/><text fill="#000000" font-family="sans-serif" font-size="13" lengthAdjust="spacing" textLength="22" x="366" y="687.1685">null</text><polygon fill="#181818" points="60,717.3672,50,721.3672,60,725.3672,56,721.3672" style="stroke:#181818;stroke-width:1.0;"/><line style="stroke:#181818;stroke-width:1.0;stroke-dasharray:2.0,2.0;" x1="54" x2="343" y1="721.3672" y2="721.3672"/><text fill="#000000" font-family="sans-serif" font-size="13" lengthAdjust="spacing" textLength="219" x="66" y="716.3013">HTTP 404 (Tarefa n&#227;o encontrada)</text><!--SRC=[VPFFRXiX4CRlFCN89_kGsefoMaMHMb_IGvKesJx0Q1b7g1WGi9QiA4_JSvyYBrROFopUiDuJ2zzyynjcmCPh2xyTMMRGUj48Wyh3NYjljPHa0HsiQdH_fgtLXVILx4aqb7J3_wNeXOns8gGw9zsqTIdzXSPaQLy8UR-rOYnomir3XbV1y_Tw_mXR7xJRTy4_jbmhOjXuSK9FcPHbHGMFWRE2HX-D94zhmJTJt73Cs5XV29cGApW8nN-SV_8kAYll9hT-CbveXV8-LlB064eFSGa7tIhE87oPVGfxer5czJ6PTFBaeBHFvBtJafiZ_-hHjsxTjQTRVjkFePjIR5wemnEju-rEodH9aowTBLr5p9r4dAvPP21zvoiuegbr78Leiuv8tQg0r4Ua_M6QBb16dnBEB3oXp8RkYqK-Mq4R1xM2nxf-XjlT3iBDMpfWQ9XgPFlvZyVb4LpRa7EwhuAaexwrA6smFnVQ6qn0dqAESJeX-_gn-FohWLGJSJ2aWIGXnMDygUYvMtQKFP_1X4sWSGQdILw4kmAMGoq0bM4Y27kpkZL5-_dJodkdMZcyfLAwfSgN6totkqiDdc5isFNhB9GS2_iF]--></g></svg>