<?xml version="1.0" encoding="us-ascii" standalone="no"?><svg xmlns="http://www.w3.org/2000/svg" xmlns:xlink="http://www.w3.org/1999/xlink" contentStyleType="text/css" height="1016px" preserveAspectRatio="none" style="width:1468px;height:1016px;background:#FFFFFF;" version="1.1" viewBox="0 0 1468 1016" width="1468px" zoomAndPan="magnify"><defs/><g><rect fill="none" height="471.7188" style="stroke:#000000;stroke-width:1.5;" width="1235" x="10" y="198.6953"/><rect fill="none" height="134.3047" style="stroke:#000000;stroke-width:1.5;" width="1119.5" x="20" y="264.9609"/><rect fill="none" height="134.3047" style="stroke:#000000;stroke-width:1.5;" width="1119.5" x="20" y="470.2031"/><rect fill="none" height="234.0625" style="stroke:#000000;stroke-width:1.5;" width="1442.5" x="20" y="684.4141"/><line style="stroke:#181818;stroke-width:0.5;stroke-dasharray:5.0,5.0;" x1="49" x2="49" y1="81.2969" y2="935.4766"/><line style="stroke:#181818;stroke-width:0.5;stroke-dasharray:5.0,5.0;" x1="544" x2="544" y1="81.2969" y2="935.4766"/><line style="stroke:#181818;stroke-width:0.5;stroke-dasharray:5.0,5.0;" x1="1080.5" x2="1080.5" y1="81.2969" y2="935.4766"/><line style="stroke:#181818;stroke-width:0.5;stroke-dasharray:5.0,5.0;" x1="1246.5" x2="1246.5" y1="81.2969" y2="935.4766"/><line style="stroke:#181818;stroke-width:0.5;stroke-dasharray:5.0,5.0;" x1="1384.5" x2="1384.5" y1="81.2969" y2="935.4766"/><text fill="#000000" font-family="sans-serif" font-size="14" lengthAdjust="spacing" textLength="32" x="30" y="77.9951">User</text><ellipse cx="49" cy="13.5" fill="#E2E2F0" rx="8" ry="8" style="stroke:#181818;stroke-width:0.5;"/><path d="M49,21.5 L49,48.5 M36,29.5 L62,29.5 M49,48.5 L36,63.5 M49,48.5 L62,63.5 " fill="none" style="stroke:#181818;stroke-width:0.5;"/><text fill="#000000" font-family="sans-serif" font-size="14" lengthAdjust="spacing" textLength="32" x="30" y="947.4717">User</text><ellipse cx="49" cy="959.2734" fill="#E2E2F0" rx="8" ry="8" style="stroke:#181818;stroke-width:0.5;"/><path d="M49,967.2734 L49,994.2734 M36,975.2734 L62,975.2734 M49,994.2734 L36,1009.2734 M49,994.2734 L62,1009.2734 " fill="none" style="stroke:#181818;stroke-width:0.5;"/><rect fill="#E2E2F0" height="30.2969" rx="2.5" ry="2.5" style="stroke:#181818;stroke-width:0.5;" width="114" x="487" y="50"/><text fill="#000000" font-family="sans-serif" font-size="14" lengthAdjust="spacing" textLength="100" x="494" y="69.9951">TaskController</text><rect fill="#E2E2F0" height="30.2969" rx="2.5" ry="2.5" style="stroke:#181818;stroke-width:0.5;" width="114" x="487" y="934.4766"/><text fill="#000000" font-family="sans-serif" font-size="14" lengthAdjust="spacing" textLength="100" x="494" y="954.4717">TaskController</text><rect fill="#E2E2F0" height="30.2969" rx="2.5" ry="2.5" style="stroke:#181818;stroke-width:0.5;" width="97" x="1032.5" y="50"/><text fill="#000000" font-family="sans-serif" font-size="14" lengthAdjust="spacing" textLength="83" x="1039.5" y="69.9951">TaskService</text><rect fill="#E2E2F0" height="30.2969" rx="2.5" ry="2.5" style="stroke:#181818;stroke-width:0.5;" width="97" x="1032.5" y="934.4766"/><text fill="#000000" font-family="sans-serif" font-size="14" lengthAdjust="spacing" textLength="83" x="1039.5" y="954.4717">TaskService</text><rect fill="#E2E2F0" height="30.2969" rx="2.5" ry="2.5" style="stroke:#181818;stroke-width:0.5;" width="121" x="1186.5" y="50"/><text fill="#000000" font-family="sans-serif" font-size="14" lengthAdjust="spacing" textLength="107" x="1193.5" y="69.9951">TaskRepository</text><rect fill="#E2E2F0" height="30.2969" rx="2.5" ry="2.5" style="stroke:#181818;stroke-width:0.5;" width="121" x="1186.5" y="934.4766"/><text fill="#000000" font-family="sans-serif" font-size="14" lengthAdjust="spacing" textLength="107" x="1193.5" y="954.4717">TaskRepository</text><rect fill="#E2E2F0" height="30.2969" rx="2.5" ry="2.5" style="stroke:#181818;stroke-width:0.5;" width="135" x="1317.5" y="50"/><text fill="#000000" font-family="sans-serif" font-size="14" lengthAdjust="spacing" textLength="121" x="1324.5" y="69.9951">TaskReadMapper</text><rect fill="#E2E2F0" height="30.2969" rx="2.5" ry="2.5" style="stroke:#181818;stroke-width:0.5;" width="135" x="1317.5" y="934.4766"/><text fill="#000000" font-family="sans-serif" font-size="14" lengthAdjust="spacing" textLength="121" x="1324.5" y="954.4717">TaskReadMapper</text><polygon fill="#181818" points="532,108.4297,542,112.4297,532,116.4297,536,112.4297" style="stroke:#181818;stroke-width:1.0;"/><line style="stroke:#181818;stroke-width:1.0;" x1="49" x2="538" y1="112.4297" y2="112.4297"/><text fill="#000000" font-family="sans-serif" font-size="13" lengthAdjust="spacing" textLength="69" x="56" y="107.3638">POST /task</text><polygon fill="#181818" points="1069,137.5625,1079,141.5625,1069,145.5625,1073,141.5625" style="stroke:#181818;stroke-width:1.0;"/><line style="stroke:#181818;stroke-width:1.0;" x1="544" x2="1075" y1="141.5625" y2="141.5625"/><text fill="#000000" font-family="sans-serif" font-size="13" lengthAdjust="spacing" textLength="78" x="551" y="136.4966">create(task)</text><line style="stroke:#181818;stroke-width:1.0;" x1="1081" x2="1123" y1="170.6953" y2="170.6953"/><line style="stroke:#181818;stroke-width:1.0;" x1="1123" x2="1123" y1="170.6953" y2="183.6953"/><line style="stroke:#181818;stroke-width:1.0;" x1="1082" x2="1123" y1="183.6953" y2="183.6953"/><polygon fill="#181818" points="1092,179.6953,1082,183.6953,1092,187.6953,1088,183.6953" style="stroke:#181818;stroke-width:1.0;"/><text fill="#000000" font-family="sans-serif" font-size="13" lengthAdjust="spacing" textLength="152" x="1088" y="165.6294">validateTaskFields(task)</text><path d="M10,198.6953 L74,198.6953 L74,205.8281 L64,215.8281 L10,215.8281 L10,198.6953 " fill="#EEEEEE" style="stroke:#000000;stroke-width:1.5;"/><rect fill="none" height="471.7188" style="stroke:#000000;stroke-width:1.5;" width="1235" x="10" y="198.6953"/><text fill="#000000" font-family="sans-serif" font-size="13" font-weight="bold" lengthAdjust="spacing" textLength="19" x="25" y="211.7622">alt</text><text fill="#000000" font-family="sans-serif" font-size="11" font-weight="bold" lengthAdjust="spacing" textLength="148" x="89" y="210.9058">[Task is due date type]</text><line style="stroke:#181818;stroke-width:1.0;" x1="1081" x2="1123" y1="236.9609" y2="236.9609"/><line style="stroke:#181818;stroke-width:1.0;" x1="1123" x2="1123" y1="236.9609" y2="249.9609"/><line style="stroke:#181818;stroke-width:1.0;" x1="1082" x2="1123" y1="249.9609" y2="249.9609"/><polygon fill="#181818" points="1092,245.9609,1082,249.9609,1092,253.9609,1088,249.9609" style="stroke:#181818;stroke-width:1.0;"/><text fill="#000000" font-family="sans-serif" font-size="13" lengthAdjust="spacing" textLength="144" x="1088" y="231.895">validateDueDate(task)</text><path d="M20,264.9609 L84,264.9609 L84,272.0938 L74,282.0938 L20,282.0938 L20,264.9609 " fill="#EEEEEE" style="stroke:#000000;stroke-width:1.5;"/><rect fill="none" height="134.3047" style="stroke:#000000;stroke-width:1.5;" width="1119.5" x="20" y="264.9609"/><text fill="#000000" font-family="sans-serif" font-size="13" font-weight="bold" lengthAdjust="spacing" textLength="19" x="35" y="278.0278">alt</text><text fill="#000000" font-family="sans-serif" font-size="11" font-weight="bold" lengthAdjust="spacing" textLength="202" x="99" y="277.1714">[Task due date is before today]</text><polygon fill="#181818" points="555,299.2266,545,303.2266,555,307.2266,551,303.2266" style="stroke:#181818;stroke-width:1.0;"/><line style="stroke:#181818;stroke-width:1.0;" x1="549" x2="1080" y1="303.2266" y2="303.2266"/><text fill="#000000" font-family="sans-serif" font-size="13" lengthAdjust="spacing" textLength="177" x="561" y="298.1606">InvalidFieldFormatException</text><polygon fill="#181818" points="60,328.3594,50,332.3594,60,336.3594,56,332.3594" style="stroke:#181818;stroke-width:1.0;"/><line style="stroke:#181818;stroke-width:1.0;" x1="54" x2="543" y1="332.3594" y2="332.3594"/><text fill="#000000" font-family="sans-serif" font-size="13" lengthAdjust="spacing" textLength="471" x="66" y="327.2935">HTTP 400 (Data de vencimento deve ser maior ou igual que a data atual.)</text><line style="stroke:#000000;stroke-width:1.0;stroke-dasharray:2.0,2.0;" x1="20" x2="1139.5" y1="341.3594" y2="341.3594"/><text fill="#000000" font-family="sans-serif" font-size="11" font-weight="bold" lengthAdjust="spacing" textLength="151" x="25" y="351.5698">[Task due date is valid]</text><rect fill="none" height="39.1016" style="stroke:#000000;stroke-width:1.5;" width="103" x="1029.5" y="355.1641"/><path d="M1029.5,355.1641 L1095.5,355.1641 L1095.5,362.1641 L1085.5,372.1641 L1029.5,372.1641 L1029.5,355.1641 " fill="#EEEEEE" style="stroke:#000000;stroke-width:2.0;"/><text fill="#000000" font-family="sans-serif" font-size="13" font-weight="bold" lengthAdjust="spacing" textLength="21" x="1042.5" y="369.231">ref</text><text fill="#000000" font-family="sans-serif" font-size="12" lengthAdjust="spacing" textLength="86" x="1038" y="387.3027">Task Creation</text><line style="stroke:#000000;stroke-width:1.0;stroke-dasharray:2.0,2.0;" x1="10" x2="1245" y1="407.2656" y2="407.2656"/><text fill="#000000" font-family="sans-serif" font-size="11" font-weight="bold" lengthAdjust="spacing" textLength="132" x="15" y="417.4761">[Task is Period type]</text><line style="stroke:#181818;stroke-width:1.0;" x1="1081" x2="1123" y1="442.2031" y2="442.2031"/><line style="stroke:#181818;stroke-width:1.0;" x1="1123" x2="1123" y1="442.2031" y2="455.2031"/><line style="stroke:#181818;stroke-width:1.0;" x1="1082" x2="1123" y1="455.2031" y2="455.2031"/><polygon fill="#181818" points="1092,451.2031,1082,455.2031,1092,459.2031,1088,455.2031" style="stroke:#181818;stroke-width:1.0;"/><text fill="#000000" font-family="sans-serif" font-size="13" lengthAdjust="spacing" textLength="145" x="1088" y="437.1372">validateDueDays(task)</text><path d="M20,470.2031 L84,470.2031 L84,477.3359 L74,487.3359 L20,487.3359 L20,470.2031 " fill="#EEEEEE" style="stroke:#000000;stroke-width:1.5;"/><rect fill="none" height="134.3047" style="stroke:#000000;stroke-width:1.5;" width="1119.5" x="20" y="470.2031"/><text fill="#000000" font-family="sans-serif" font-size="13" font-weight="bold" lengthAdjust="spacing" textLength="19" x="35" y="483.27">alt</text><text fill="#000000" font-family="sans-serif" font-size="11" font-weight="bold" lengthAdjust="spacing" textLength="159" x="99" y="482.4136">[Due days is less than 1]</text><polygon fill="#181818" points="555,504.4688,545,508.4688,555,512.4688,551,508.4688" style="stroke:#181818;stroke-width:1.0;"/><line style="stroke:#181818;stroke-width:1.0;" x1="549" x2="1080" y1="508.4688" y2="508.4688"/><text fill="#000000" font-family="sans-serif" font-size="13" lengthAdjust="spacing" textLength="513" x="561" y="503.4028">InvalidFieldFormatException (Dias para vencimento deve ser maior ou igual a 1.)</text><polygon fill="#181818" points="60,533.6016,50,537.6016,60,541.6016,56,537.6016" style="stroke:#181818;stroke-width:1.0;"/><line style="stroke:#181818;stroke-width:1.0;" x1="54" x2="543" y1="537.6016" y2="537.6016"/><text fill="#000000" font-family="sans-serif" font-size="13" lengthAdjust="spacing" textLength="60" x="66" y="532.5356">HTTP 400</text><line style="stroke:#000000;stroke-width:1.0;stroke-dasharray:2.0,2.0;" x1="20" x2="1139.5" y1="546.6016" y2="546.6016"/><text fill="#000000" font-family="sans-serif" font-size="11" font-weight="bold" lengthAdjust="spacing" textLength="119" x="25" y="556.812">[Due days is valid]</text><rect fill="none" height="39.1016" style="stroke:#000000;stroke-width:1.5;" width="103" x="1029.5" y="560.4063"/><path d="M1029.5,560.4063 L1095.5,560.4063 L1095.5,567.4063 L1085.5,577.4063 L1029.5,577.4063 L1029.5,560.4063 " fill="#EEEEEE" style="stroke:#000000;stroke-width:2.0;"/><text fill="#000000" font-family="sans-serif" font-size="13" font-weight="bold" lengthAdjust="spacing" textLength="21" x="1042.5" y="574.4731">ref</text><text fill="#000000" font-family="sans-serif" font-size="12" lengthAdjust="spacing" textLength="86" x="1038" y="592.5449">Task Creation</text><line style="stroke:#000000;stroke-width:1.0;stroke-dasharray:2.0,2.0;" x1="10" x2="1245" y1="612.5078" y2="612.5078"/><text fill="#000000" font-family="sans-serif" font-size="11" font-weight="bold" lengthAdjust="spacing" textLength="120" x="15" y="622.7183">[Task is Free type]</text><rect fill="none" height="39.1016" style="stroke:#000000;stroke-width:1.5;" width="103" x="1029.5" y="626.3125"/><path d="M1029.5,626.3125 L1095.5,626.3125 L1095.5,633.3125 L1085.5,643.3125 L1029.5,643.3125 L1029.5,626.3125 " fill="#EEEEEE" style="stroke:#000000;stroke-width:2.0;"/><text fill="#000000" font-family="sans-serif" font-size="13" font-weight="bold" lengthAdjust="spacing" textLength="21" x="1042.5" y="640.3794">ref</text><text fill="#000000" font-family="sans-serif" font-size="12" lengthAdjust="spacing" textLength="86" x="1038" y="658.4512">Task Creation</text><path d="M20,684.4141 L166,684.4141 L166,691.5469 L156,701.5469 L20,701.5469 L20,684.4141 " fill="#EEEEEE" style="stroke:#000000;stroke-width:1.5;"/><rect fill="none" height="234.0625" style="stroke:#000000;stroke-width:1.5;" width="1442.5" x="20" y="684.4141"/><text fill="#000000" font-family="sans-serif" font-size="13" font-weight="bold" lengthAdjust="spacing" textLength="101" x="35" y="697.481">Task Creation</text><line style="stroke:#181818;stroke-width:1.0;" x1="1081" x2="1123" y1="722.6797" y2="722.6797"/><line style="stroke:#181818;stroke-width:1.0;" x1="1123" x2="1123" y1="722.6797" y2="735.6797"/><line style="stroke:#181818;stroke-width:1.0;" x1="1082" x2="1123" y1="735.6797" y2="735.6797"/><polygon fill="#181818" points="1092,731.6797,1082,735.6797,1092,739.6797,1088,735.6797" style="stroke:#181818;stroke-width:1.0;"/><text fill="#000000" font-family="sans-serif" font-size="13" lengthAdjust="spacing" textLength="134" x="1088" y="717.6138">createNewTask(task)</text><polygon fill="#181818" points="1235,760.8125,1245,764.8125,1235,768.8125,1239,764.8125" style="stroke:#181818;stroke-width:1.0;"/><line style="stroke:#181818;stroke-width:1.0;" x1="1081" x2="1241" y1="764.8125" y2="764.8125"/><text fill="#000000" font-family="sans-serif" font-size="13" lengthAdjust="spacing" textLength="94" x="1088" y="759.7466">save(newTask)</text><polygon fill="#181818" points="1092,789.9453,1082,793.9453,1092,797.9453,1088,793.9453" style="stroke:#181818;stroke-width:1.0;"/><line style="stroke:#181818;stroke-width:1.0;" x1="1086" x2="1246" y1="793.9453" y2="793.9453"/><text fill="#000000" font-family="sans-serif" font-size="13" lengthAdjust="spacing" textLength="29" x="1098" y="788.8794">Task</text><polygon fill="#181818" points="1373,819.0781,1383,823.0781,1373,827.0781,1377,823.0781" style="stroke:#181818;stroke-width:1.0;"/><line style="stroke:#181818;stroke-width:1.0;" x1="1081" x2="1379" y1="823.0781" y2="823.0781"/><text fill="#000000" font-family="sans-serif" font-size="13" lengthAdjust="spacing" textLength="182" x="1088" y="818.0122">mapToReadTask(savedTask)</text><polygon fill="#181818" points="1092,848.2109,1082,852.2109,1092,856.2109,1088,852.2109" style="stroke:#181818;stroke-width:1.0;"/><line style="stroke:#181818;stroke-width:1.0;" x1="1086" x2="1384" y1="852.2109" y2="852.2109"/><text fill="#000000" font-family="sans-serif" font-size="13" lengthAdjust="spacing" textLength="61" x="1098" y="847.145">ReadTask</text><polygon fill="#181818" points="555,877.3438,545,881.3438,555,885.3438,551,881.3438" style="stroke:#181818;stroke-width:1.0;"/><line style="stroke:#181818;stroke-width:1.0;" x1="549" x2="1080" y1="881.3438" y2="881.3438"/><text fill="#000000" font-family="sans-serif" font-size="13" lengthAdjust="spacing" textLength="61" x="561" y="876.2778">ReadTask</text><polygon fill="#181818" points="60,906.4766,50,910.4766,60,914.4766,56,910.4766" style="stroke:#181818;stroke-width:1.0;"/><line style="stroke:#181818;stroke-width:1.0;" x1="54" x2="543" y1="910.4766" y2="910.4766"/><text fill="#000000" font-family="sans-serif" font-size="13" lengthAdjust="spacing" textLength="156" x="66" y="905.4106">HTTP 201 (Task created)</text><!--SRC=[jPJFSjCm4CRlUegTdD83D64u-S2b8GC78DEQ1rYiRT7WI4QI3NvxTcN7bjD_C4nzigMVlltqhIoielFmDP1N3VfeAjEWZN3bRFIkhia31bYL67xCGwi5UaE-CnLDtFYzXAwfSS5mgNxYvg4b-WcR9YjxJQY7ePLIuXDUlSli5N3uSbF2PMHKPQuP6eqKK7d2I6j1BfGw-Ss93ckZcP62UqEr3YCD_2Yi8yWCc02w9H0IOjzGcdvARzVIRYujzAGr2R7eDxfrdYMTnZvHPxhvTZ_Q99vSxfq_Odp_kw8c6cUdfSiS9BG2FfJb0TvkDh1cHmYQe2DRcIFPwFYh8v1iZsZuEBWMp5sBDVnaaoWs4J3omEjX4rG7kh-Bv6louEaMNCUIupwc2NdIsYjfIswRh9PbQdnNSnbMFv0tJlz3x7quYtsNlFP1r6eA0U9tjB3zZy0vIyFdb4yl_asQ2Dinm6URDCUSktxPXFUUicFzgFfzvPEgAAexxzhc0UYXVWq_vcVw9NZMhOoTRua20dQqjWCzWDcrakiAeCwLXakauAOqfPDR9HKLJJqBZfTFBdP2rHDdPC4ysjWtcosiKpB3nlL5YkmF]--></g></svg>